<svg xmlns="http://www.w3.org/2000/svg" xmlns:xlink="http://www.w3.org/1999/xlink" width="500" zoomAndPan="magnify" viewBox="0 0 375 374.999991" height="500" preserveAspectRatio="xMidYMid meet" version="1.0"><rect x="-37.5" width="450" fill="#ffffff" y="-37.499999" height="449.999989" fill-opacity="1"/><rect x="-37.5" width="450" fill="#ffffff" y="-37.499999" height="449.999989" fill-opacity="1"/><rect x="-37.5" width="450" fill="#ffffff" y="-37.499999" height="449.999989" fill-opacity="1"/><path fill="#e3cd69" d="M 176.800781 399.734375 C 118.578125 370.894531 82.660156 343.679688 63.769531 314.082031 C 47.867188 289.144531 46.109375 264.757812 46.945312 243.855469 C 36.078125 242.046875 24.988281 239.703125 13.9375 236.894531 L 0.03125 233.386719 L 46.902344 160.40625 C 40.050781 112.949219 23.835938 91.246094 23.671875 91.039062 L 16.457031 81.976562 L 26.390625 75.871094 C 72.136719 47.726562 93.761719 6.082031 93.980469 5.664062 L 96.863281 0 L 265.902344 0 L 268.777344 5.65625 C 268.996094 6.074219 290.613281 47.738281 336.375 75.886719 L 346.363281 81.984375 L 339.027344 91.132812 C 338.902344 91.289062 323.742188 111.660156 316.527344 156.199219 L 332.683594 139.140625 C 335.128906 136.554688 338.582031 135.125 342.398438 135.125 C 344.777344 135.125 347.320312 135.679688 349.953125 136.769531 C 353.804688 138.363281 357.984375 141.1875 361.707031 144.707031 C 365.445312 148.246094 368.496094 152.261719 370.289062 156.015625 C 374.960938 165.773438 370.386719 171.761719 368.867188 173.363281 L 324.890625 219.820312 C 337.441406 236 340.238281 247.960938 333.195312 255.402344 L 327.226562 261.699219 C 325.371094 263.6875 321.992188 266.074219 316.511719 266.074219 C 316.160156 266.074219 315.804688 266.066406 315.445312 266.039062 C 314.167969 280.519531 309.84375 301.0625 292.21875 323.683594 C 272.195312 349.382812 237.445312 374.257812 186 399.734375 L 181.417969 402 Z M 176.800781 399.734375 " fill-opacity="1" fill-rule="nonzero"/><path fill="#ff914d" d="M 89.796875 298.40625 C 87.835938 301.996094 84.289062 308.851562 81.128906 316.808594 C 60.03125 290.070312 58.226562 264.871094 59.882812 237.671875 C 66.019531 238.492188 72.074219 239.152344 78.050781 239.621094 C 77.128906 255.027344 77.46875 267.363281 81.414062 279.769531 C 79.226562 283.832031 77.378906 288.089844 75.75 292.449219 L 74.871094 294.835938 L 77.378906 295.425781 Z M 258.199219 12.605469 L 104.566406 12.605469 C 100.550781 19.960938 78.390625 57.914062 35.066406 85.3125 C 39.53125 91.855469 52.617188 114.039062 59.039062 156.390625 L 73.414062 134.007812 C 69.957031 118.710938 65.398438 104.769531 59.8125 92.597656 L 59.066406 90.941406 L 60.511719 89.835938 C 88.445312 68.535156 106.1875 44.398438 114.253906 31.898438 L 114.925781 30.859375 L 247.824219 30.859375 L 248.492188 31.898438 C 256.570312 44.390625 274.300781 68.535156 302.238281 89.835938 L 303.683594 90.941406 L 302.933594 92.597656 C 299.71875 99.644531 296.800781 107.339844 294.257812 115.527344 L 297.941406 116.410156 L 297.0625 118.8125 C 296.84375 119.398438 294.394531 125.941406 288.949219 135.75 C 285.671875 150.71875 283.496094 166.949219 282.511719 184.019531 C 282.371094 186.285156 282.285156 188.585938 282.242188 190.988281 C 285.152344 192.90625 287.746094 194.804688 289.664062 196.277344 L 300.746094 184.566406 C 304.417969 123.65625 322.304688 93.207031 327.671875 85.332031 C 284.375 57.914062 262.21875 19.960938 258.199219 12.605469 Z M 258.199219 12.605469 " fill-opacity="1" fill-rule="nonzero"/><path fill="#ffde59" d="M 291.625 184.542969 C 290.769531 199.03125 291.832031 212.578125 292.851562 225.683594 C 294.890625 251.65625 296.660156 274.089844 283.441406 297.746094 C 269.066406 323.527344 237.394531 348.816406 186.609375 375.050781 L 181.375 377.761719 L 176.136719 375.050781 C 125.355469 348.816406 93.691406 323.527344 79.304688 297.746094 C 66.085938 274.082031 67.855469 251.65625 69.886719 225.691406 C 70.921875 212.578125 71.988281 199.03125 71.132812 184.542969 C 68.597656 141.527344 59.066406 112.863281 51.519531 96.394531 L 47.796875 88.300781 L 71.910156 93.949219 L 121.574219 42.570312 L 109.855469 21.921875 L 109.96875 21.738281 L 252.789062 21.738281 L 252.980469 22.035156 L 245.339844 35.417969 L 298.046875 92.355469 L 314.847656 88.539062 L 311.230469 96.40625 C 303.691406 112.863281 294.152344 141.527344 291.625 184.542969 Z M 291.625 184.542969 " fill-opacity="1" fill-rule="nonzero"/><path fill="#012130" d="M 121.582031 42.5625 L 71.917969 93.9375 L 47.808594 88.292969 L 47.71875 88.085938 L 54.988281 82.550781 C 69.921875 71.171875 81.832031 58.921875 90.800781 48.242188 L 99.652344 51.859375 L 94.988281 43.101562 C 96.027344 41.785156 97.019531 40.503906 97.96875 39.257812 L 102.613281 40.808594 L 100.957031 35.199219 C 103.214844 32.089844 105.097656 29.292969 106.621094 26.929688 L 109.871094 21.902344 Z M 307.78125 82.5625 C 280.976562 62.136719 263.933594 38.945312 256.152344 26.9375 L 252.980469 22.027344 L 245.339844 35.40625 L 298.046875 92.34375 L 314.847656 88.527344 L 315.039062 88.09375 Z M 307.78125 82.5625 " fill-opacity="1" fill-rule="nonzero"/><path fill="#faefec" d="M 287.574219 245.878906 L 245.757812 231.242188 C 245.242188 233.445312 244.597656 235.527344 243.910156 237.664062 C 243.386719 239.109375 242.917969 240.582031 242.296875 241.984375 C 241.714844 243.414062 241.140625 244.832031 240.460938 246.21875 C 237.90625 251.792969 234.882812 257.152344 231.347656 262.144531 C 227.765625 267.09375 223.992188 271.902344 219.574219 276.113281 C 218.503906 277.183594 217.457031 278.28125 216.261719 279.238281 L 212.820312 282.203125 C 211.707031 283.210938 210.417969 284.046875 209.203125 284.945312 C 207.976562 285.835938 206.757812 286.722656 205.511719 287.570312 C 207.585938 285.355469 209.769531 283.308594 211.792969 281.105469 C 213.761719 278.847656 215.863281 276.738281 217.699219 274.386719 L 220.53125 270.945312 L 223.191406 267.371094 C 224.113281 266.214844 224.925781 264.976562 225.742188 263.75 C 226.554688 262.503906 227.441406 261.335938 228.183594 260.046875 L 230.464844 256.253906 C 231.199219 254.964844 231.867188 253.660156 232.574219 252.371094 C 233.304688 251.078125 233.890625 249.738281 234.5625 248.421875 C 235.230469 247.105469 235.808594 245.757812 236.382812 244.40625 C 237.566406 241.714844 238.535156 238.945312 239.511719 236.179688 C 240.371094 233.566406 241.148438 230.832031 241.695312 228.269531 L 235.433594 204.710938 C 228.820312 219.382812 218.476562 232.367188 205.597656 242.019531 C 209.203125 237.007812 212.636719 231.015625 215.121094 225.371094 C 205.527344 236.199219 193.078125 244.710938 179.769531 250.410156 C 181.707031 246.941406 183.246094 242.898438 183.457031 238.925781 C 188.378906 235.386719 192.851562 230.902344 196.570312 226.117188 C 191.28125 230.25 184.945312 234.082031 178.683594 236.679688 C 164.878906 248.011719 144.34375 262.929688 122.324219 272.128906 L 155.085938 297.316406 L 152.515625 310.144531 L 169.203125 315.859375 L 166.71875 380.417969 C 171.40625 382.902344 176.285156 385.402344 181.382812 387.945312 C 192.640625 382.34375 202.851562 376.871094 212.148438 371.515625 L 207.167969 354.714844 L 215.042969 360.964844 L 208.132812 346.238281 L 214.371094 340.4375 C 214.371094 315.003906 229.769531 300.507812 229.769531 300.507812 C 223.746094 311.886719 222.414062 323.265625 222.414062 323.265625 C 233.351562 295.820312 260.34375 272.445312 260.34375 272.445312 C 265.910156 266.386719 271.878906 260.707031 278.414062 255.742188 C 272.839844 261.753906 267.480469 267.886719 262.355469 274.175781 C 257.234375 280.484375 252.378906 286.992188 248.25 293.902344 C 244.144531 300.8125 240.5625 308.070312 238.527344 315.667969 C 238.019531 317.601562 237.628906 319.40625 237.367188 321.390625 L 236.652344 327.453125 L 235.171875 339.589844 L 235.058594 340.453125 L 234.402344 341.019531 L 227.460938 347.152344 C 228.296875 349.488281 229.082031 351.832031 229.820312 354.195312 C 230.386719 356.015625 230.917969 357.863281 231.433594 359.707031 C 289.570312 321.792969 301.191406 290.058594 303.074219 262.40625 C 295.832031 252.648438 288.992188 246.992188 287.574219 245.878906 Z M 201.929688 267.007812 C 200.308594 268.679688 198.671875 270.316406 196.945312 271.878906 C 192.683594 275.796875 187.945312 279.238281 182.988281 282.246094 C 181.722656 282.976562 180.46875 283.691406 179.1875 284.386719 C 177.890625 285.042969 176.554688 285.617188 175.242188 286.234375 L 173.253906 287.097656 C 172.582031 287.359375 171.894531 287.601562 171.199219 287.828125 C 169.820312 288.28125 168.453125 288.746094 167.066406 289.128906 C 168.242188 288.273438 169.4375 287.472656 170.621094 286.695312 L 172.410156 285.539062 L 174.132812 284.285156 C 175.285156 283.449219 176.46875 282.671875 177.601562 281.84375 C 178.707031 280.964844 179.839844 280.121094 180.964844 279.28125 C 184.300781 276.6875 187.605469 274.027344 190.792969 271.242188 C 190.417969 271.355469 190.042969 271.46875 189.660156 271.582031 C 185.511719 272.792969 181.304688 273.769531 177.0625 274.5 C 174.945312 274.832031 172.816406 275.214844 170.683594 275.449219 L 167.492188 275.839844 L 164.277344 276.09375 C 162.144531 276.277344 159.992188 276.269531 157.855469 276.304688 C 155.714844 276.277344 153.570312 276.144531 151.433594 275.980469 L 164 273.828125 C 168.164062 273.121094 172.277344 272.242188 176.363281 271.242188 C 180.425781 270.167969 184.449219 269 188.398438 267.632812 C 189.390625 267.292969 190.367188 266.945312 191.34375 266.5625 C 192.328125 266.207031 193.292969 265.832031 194.261719 265.445312 C 196.144531 264.679688 198.09375 263.828125 199.804688 262.980469 C 201.910156 260.960938 204.003906 258.914062 206.066406 256.839844 C 210.058594 252.824219 213.960938 248.710938 217.9375 244.527344 C 215.523438 249.800781 212.28125 254.617188 208.75 259.199219 C 206.632812 261.910156 204.34375 264.507812 201.945312 266.988281 L 201.957031 266.996094 C 201.964844 266.988281 201.945312 267.007812 201.929688 267.007812 Z M 273.945312 314.550781 C 267.007812 324.03125 256.203125 331.734375 244.851562 334.746094 C 252.355469 327.792969 260.167969 319.890625 265.796875 311.363281 C 260.859375 314.429688 255.394531 316.617188 249.703125 317.863281 C 263.671875 308.382812 275.558594 295.878906 284.304688 281.453125 C 284.847656 293.1875 280.890625 305.089844 273.945312 314.550781 Z M 147.898438 310.039062 C 142.625 308.007812 136.535156 307.484375 131.097656 308.695312 C 130.6875 304.382812 130.359375 300.210938 129.949219 295.890625 C 128.398438 299.773438 127.167969 304.28125 126.042969 308.320312 C 123.378906 301.386719 121.609375 293.929688 121.035156 286.53125 C 120.335938 289.066406 119.929688 291.769531 119.230469 294.292969 C 114.324219 291.996094 109.339844 290.558594 104.007812 289.640625 C 104.644531 285.277344 106.046875 280.695312 107.929688 276.703125 C 105.691406 279.179688 103.355469 281.984375 101.105469 284.457031 C 103.214844 277.105469 106.753906 270.160156 111.421875 264.105469 L 108.511719 262.476562 L 109.90625 260.421875 C 110.832031 259.0625 111.597656 257.570312 112.234375 256.027344 L 108.625 250.601562 C 106.074219 253.214844 103.589844 255.984375 101.230469 258.800781 C 98.265625 262.335938 95.46875 266.003906 92.847656 269.777344 C 90.1875 273.542969 87.828125 277.488281 85.632812 281.511719 C 83.855469 284.789062 82.320312 288.167969 80.96875 291.621094 L 109.515625 298.449219 L 110.890625 298.78125 L 111.214844 300.160156 L 113.664062 311.039062 C 117.175781 311.378906 120.617188 311.859375 124.066406 312.46875 C 128.058594 313.140625 132.03125 313.984375 135.960938 314.976562 C 139.882812 315.988281 143.785156 317.128906 147.59375 318.558594 C 151.382812 320.003906 155.085938 321.730469 158.519531 323.875 C 154.640625 322.6875 150.800781 321.667969 146.921875 320.746094 C 143.339844 319.945312 139.757812 319.203125 136.144531 318.566406 C 135.847656 324.449219 135.90625 330.347656 136.351562 336.21875 C 131.027344 333.996094 125.417969 331.394531 120.433594 328.492188 C 126.375 337.101562 135.019531 344.339844 144.875 347.84375 C 137.179688 348.390625 129.042969 347.554688 122 344.375 C 127.273438 348.921875 133.417969 352.511719 140.074219 354.523438 C 140.195312 358.542969 140.4375 362.324219 141.328125 366.121094 C 147.792969 370.035156 154.738281 373.996094 162.230469 378.050781 L 164.496094 319.082031 L 147.261719 313.183594 Z M 357.113281 158.515625 C 357.070312 158.449219 357.011719 158.378906 356.957031 158.300781 C 356.800781 158.082031 356.636719 157.863281 356.46875 157.636719 C 356.363281 157.515625 356.261719 157.382812 356.164062 157.261719 C 356.027344 157.089844 355.894531 156.921875 355.746094 156.738281 C 355.597656 156.558594 355.425781 156.375 355.265625 156.191406 C 355.152344 156.050781 355.050781 155.929688 354.925781 155.800781 C 354.71875 155.574219 354.507812 155.347656 354.273438 155.101562 C 354.195312 155.023438 354.117188 154.925781 354.019531 154.839844 C 353.699219 154.507812 353.367188 154.1875 353.027344 153.855469 C 348.253906 149.324219 343.992188 147.6875 342.390625 147.6875 C 342.128906 147.6875 341.9375 147.730469 341.824219 147.808594 C 341.316406 148.65625 342.957031 153.394531 348.503906 158.640625 C 354.011719 163.859375 358.824219 165.242188 359.695312 164.695312 C 360.023438 164.09375 359.355469 161.664062 357.113281 158.515625 Z M 338.503906 153.035156 C 338.292969 152.628906 338.136719 152.234375 337.988281 151.859375 L 333.640625 156.453125 C 333.703125 158.472656 334.085938 164.058594 336.445312 171.105469 C 338.886719 171.515625 344.75 172.292969 352.59375 172.203125 L 355.832031 168.78125 C 352.402344 167.640625 348.558594 165.007812 345.351562 161.976562 C 342.328125 159.109375 339.898438 155.929688 338.503906 153.035156 Z M 342.117188 183.261719 L 348.3125 176.726562 C 344.148438 176.621094 340.742188 176.292969 338.328125 175.996094 C 339.347656 178.347656 340.601562 180.785156 342.117188 183.261719 Z M 319.464844 171.429688 C 319.375 174.460938 319.671875 186.449219 329.554688 196.546875 L 338.886719 186.695312 C 332.324219 176.4375 330.136719 166.714844 329.421875 160.914062 Z M 315.082031 176.066406 L 304.347656 187.390625 C 309.148438 189.777344 315.457031 190.308594 319.421875 190.378906 C 316.570312 184.960938 315.472656 179.8125 315.082031 176.066406 Z M 320.316406 194.953125 C 317.914062 194.953125 314.410156 194.796875 310.722656 194.117188 C 311.542969 197.800781 313.390625 204.015625 317.328125 209.453125 L 326.417969 199.859375 C 324.804688 198.238281 323.417969 196.574219 322.21875 194.910156 C 321.703125 194.9375 321.066406 194.953125 320.316406 194.953125 Z M 301.113281 190.816406 L 296.25 195.945312 C 296.296875 198.613281 297.140625 208.378906 306.160156 221.25 L 314.132812 212.824219 C 308.378906 205.277344 306.410156 196.398438 305.828125 192.886719 C 304.179688 192.347656 302.585938 191.667969 301.113281 190.816406 Z M 294.8125 215.351562 C 296.355469 216.796875 297.828125 217.945312 299.179688 218.851562 C 294.570312 211.035156 292.765625 204.589844 292.085938 200.335938 L 288.148438 204.503906 C 287.644531 205.347656 289.273438 210.097656 294.8125 215.351562 Z M 94.703125 240.484375 L 92.671875 240.441406 L 92.113281 234.246094 C 89.160156 234.144531 86.433594 233.769531 84.726562 233.5 L 82.722656 237.992188 C 81.808594 251.996094 81.839844 263.304688 84.578125 274.230469 C 86.015625 271.824219 87.503906 269.472656 89.117188 267.191406 C 91.828125 263.277344 94.703125 259.503906 97.753906 255.863281 C 100.410156 252.699219 103.136719 249.667969 106.074219 246.714844 L 101.96875 240.546875 C 101.71875 240.546875 101.464844 240.554688 101.203125 240.554688 C 99.058594 240.5625 96.890625 240.527344 94.703125 240.484375 Z M 258.550781 184.769531 C 258.96875 184.332031 259.4375 183.984375 259.953125 183.707031 C 264.082031 181.5 271.183594 184.367188 277.753906 188.175781 C 277.8125 186.667969 277.875 185.1875 277.960938 183.730469 C 278.710938 171.019531 280.105469 158.761719 282.101562 147.121094 C 275.496094 157.28125 266.46875 169.171875 254.488281 181.082031 C 249.609375 185.925781 244.050781 190.910156 237.800781 195.851562 L 245.941406 226.476562 L 246.160156 226.554688 L 259.011719 212.960938 C 258.027344 211.585938 257.085938 210.21875 256.25 208.894531 C 250.820312 200.242188 249.574219 194.257812 252.582031 191.085938 Z M 289.828125 114.457031 C 292.261719 106.625 295.003906 99.191406 298.054688 92.34375 C 272.386719 72.472656 255.332031 50.65625 245.347656 35.417969 L 117.410156 35.417969 C 107.433594 50.664062 90.378906 72.460938 64.71875 92.355469 C 69.566406 103.234375 73.632812 115.425781 76.859375 128.652344 L 113.15625 72.140625 Z M 289.828125 114.457031 " fill-opacity="1" fill-rule="nonzero"/><path fill="#ff914d" d="M 96.847656 235.964844 C 174.726562 237.210938 223.679688 205.191406 251.125 177.980469 C 269.285156 159.972656 280.664062 141.675781 286.851562 129.929688 L 250.871094 123.363281 C 242.699219 139.65625 228.722656 149.839844 228.722656 149.839844 C 234.96875 140.613281 236.929688 126.339844 236.929688 126.339844 C 224.496094 152.695312 192.265625 171.613281 191.253906 172.203125 L 210.277344 167.097656 C 176.304688 191.398438 132.824219 198.640625 131.472656 198.855469 C 175.816406 180.726562 188.546875 140.027344 188.546875 140.027344 C 182.402344 150.285156 165.046875 161.671875 164.496094 162.027344 C 179.089844 145.667969 183.988281 123.667969 183.988281 123.667969 C 172.277344 149.253906 136.492188 163.527344 136.492188 163.527344 C 173.679688 125.15625 156.558594 87.230469 156.558594 87.230469 C 138.714844 109.570312 109.550781 112.113281 97.253906 112.113281 C 95.398438 112.113281 93.945312 112.054688 92.960938 112 L 20.105469 225.457031 C 40.390625 230.441406 60.179688 233.699219 78.992188 235.136719 L 93.8125 201.871094 Z M 188.703125 200.757812 C 193.972656 198.027344 199.238281 195.320312 204.246094 192.183594 C 206.800781 190.703125 209.273438 189.074219 211.777344 187.488281 C 214.207031 185.8125 216.679688 184.195312 219.042969 182.414062 C 223.851562 179.007812 228.496094 175.332031 232.964844 171.457031 C 237.480469 167.640625 241.757812 163.554688 245.941406 159.371094 C 254.21875 150.902344 262 141.859375 268.605469 131.855469 C 266.199219 137.363281 263.019531 142.503906 259.671875 147.523438 C 256.25 152.480469 252.546875 157.261719 248.546875 161.785156 C 240.566406 170.84375 231.519531 179.019531 221.707031 186.109375 C 211.898438 193.203125 201.292969 199.195312 190.210938 203.988281 C 179.101562 208.726562 167.519531 212.308594 155.703125 214.398438 C 167.039062 210.46875 178.070312 206.007812 188.703125 200.757812 Z M 96.65625 146.265625 C 96.65625 146.265625 113.234375 147.453125 126.914062 140.316406 C 126.914062 140.316406 112.113281 142.078125 101.125 136.746094 C 101.125 136.746094 130.367188 134.0625 149.5 123.058594 C 149.5 123.058594 135.488281 159.945312 82.757812 169.46875 Z M 262.226562 202.59375 C 259.785156 198.707031 258.199219 195.363281 257.460938 192.574219 L 255.910156 194.210938 C 255.0625 195.101562 255.5 199.09375 260.125 206.460938 C 264.710938 213.746094 271.96875 222.257812 280.578125 230.394531 C 286.441406 235.945312 292.417969 240.84375 298.019531 244.730469 L 300.539062 241.582031 L 300.539062 241.574219 C 294.859375 237.574219 288.949219 232.679688 283.398438 227.425781 C 274.519531 219.007812 267 210.191406 262.226562 202.59375 Z M 287.304688 213.730469 C 286.710938 212.945312 286.171875 212.132812 285.691406 211.332031 C 285.683594 211.296875 285.664062 211.289062 285.664062 211.289062 C 283.40625 207.457031 282.605469 203.710938 284.828125 201.355469 L 286.5 199.597656 C 271.914062 188.4375 263.28125 186.390625 261.859375 187.894531 C 261.015625 188.785156 261.449219 192.785156 266.078125 200.15625 C 270.652344 207.4375 277.917969 215.949219 286.527344 224.089844 C 287.625 225.125 288.695312 226.109375 289.75 227.066406 C 297.644531 233.820312 308.894531 233.273438 308.894531 233.273438 C 298.578125 228.59375 290.589844 218.417969 287.304688 213.730469 Z M 239.25 210.644531 C 238.265625 207.421875 236.949219 203.394531 235.058594 200.609375 C 222.195312 211.410156 206.164062 219.382812 190.183594 224.558594 C 182.65625 226.988281 178.976562 234.230469 172.304688 238.480469 C 172.75 246.359375 171.492188 254.328125 168.660156 261.699219 C 180.710938 258.25 191.402344 252.414062 200.621094 243.925781 C 198.75 247.671875 196.621094 251.585938 194.75 255.339844 C 214.414062 246.0625 229.734375 230.203125 239.25 210.644531 Z M 212.601562 281.785156 C 221.449219 277.191406 229.734375 270.726562 236.085938 263.050781 C 234.371094 267.964844 232.671875 272.695312 230.1875 277.261719 C 240.207031 268.304688 248.851562 256.648438 254.105469 244.277344 C 265.816406 245.40625 277.585938 245.984375 289.359375 246 C 274.042969 240.335938 259.316406 234.535156 243.996094 228.871094 C 239.414062 249.414062 228.660156 268.183594 212.601562 281.785156 Z M 138.070312 271.773438 C 148.027344 278.804688 160.550781 281.382812 172.441406 278.707031 C 168.558594 284.160156 163.617188 288.980469 158.386719 293.171875 C 169.839844 293.695312 180.765625 289.964844 190.140625 283.367188 C 199.507812 276.773438 206.269531 266.988281 209.632812 256.039062 C 187.195312 266.109375 162.667969 271.511719 138.070312 271.773438 Z M 150.101562 312.390625 C 150.03125 310.160156 149.351562 307.867188 149.28125 305.636719 C 137.710938 293.5625 125.722656 281.171875 114.152344 269.097656 C 113.59375 263.617188 112.964844 258.03125 113.785156 252.585938 C 111.839844 251.046875 109.464844 250.0625 107.519531 248.519531 C 104.84375 251.5 102.621094 253.789062 100.609375 257.25 C 96.234375 264.75 92.734375 272.765625 90.199219 281.070312 C 93.882812 276.597656 97.585938 272.21875 101.945312 268.402344 C 99.214844 275.449219 97.273438 283.011719 96.113281 290.476562 C 103.929688 292.59375 111.851562 294.992188 119.308594 298.136719 C 121.171875 304.183594 122.515625 310.125 124.378906 316.164062 C 126.53125 316.695312 128.128906 316.675781 130.277344 317.207031 C 133.972656 312.773438 139.054688 311.082031 144.71875 312.191406 C 144.855469 313.382812 144.648438 314.726562 144.785156 315.910156 C 152.28125 317.871094 159.53125 320.09375 166.867188 322.566406 C 166.894531 320.605469 166.28125 319.351562 165.742188 317.46875 C 160.585938 315.832031 155.261719 314.019531 150.101562 312.390625 Z M 154.152344 350.457031 C 148.988281 347.695312 144.628906 343.921875 140.734375 339.546875 C 140.464844 332.414062 140.597656 325.257812 141.136719 318.140625 C 138.976562 317.886719 137.449219 316.992188 135.289062 316.738281 C 134.210938 319.132812 133.128906 322.019531 132.046875 324.414062 C 127.839844 323.707031 123.167969 323.082031 118.910156 322.777344 C 117.90625 328.675781 117.226562 335.070312 116.222656 340.96875 C 121.886719 354.65625 133.425781 365.867188 147.0625 371.652344 C 145.320312 365.746094 145.160156 359.308594 145.667969 353.164062 C 148.648438 353.21875 151.644531 352.09375 154.152344 350.457031 Z M 268.839844 264.402344 C 254.828125 272.757812 241.949219 283.988281 232.023438 296.933594 C 232.050781 295.359375 232.703125 293.839844 233.175781 292.34375 C 219.320312 301.867188 209.796875 318.125 208.59375 334.894531 C 206.488281 336.820312 204.742188 338.457031 202.105469 339.558594 C 202.417969 343.453125 203.472656 347.441406 204.933594 351.074219 C 202.644531 349.863281 201.03125 348.582031 198.742188 347.371094 C 199.820312 357.808594 202.90625 368.039062 207.785156 377.324219 C 211.742188 373.894531 216.210938 370.738281 220.984375 368.570312 C 219.546875 359.515625 220.882812 350.203125 223.539062 341.4375 C 226.195312 332.671875 230.160156 324.363281 234.109375 316.09375 C 239.066406 305.699219 244.058594 295.246094 250.8125 285.921875 C 256.214844 278.457031 263.105469 271.617188 268.839844 264.402344 Z M 241.296875 317.984375 C 244.835938 319.875 248.390625 320.972656 252.308594 320.136719 C 248.773438 327.027344 243.65625 333.335938 238.105469 338.738281 C 253.894531 336.648438 268.238281 329.816406 277.769531 317.070312 C 287.304688 304.324219 290.703125 288.683594 284.28125 274.117188 C 274.414062 292.359375 259.332031 307.746094 241.296875 317.984375 Z M 296.078125 218.339844 C 296.667969 219.324219 297.59375 220.421875 298.71875 220.183594 C 299.457031 220.035156 299.972656 219.3125 300.113281 218.574219 C 300.25 217.832031 300.085938 217.066406 299.910156 216.335938 C 298.585938 210.878906 296.375 205.679688 293.976562 200.597656 C 293.351562 199.273438 291.441406 196.816406 289.855469 198.558594 C 288.90625 199.605469 290.011719 202.339844 290.273438 203.484375 C 291.476562 208.738281 293.28125 213.71875 296.078125 218.339844 Z M 300.519531 188.644531 C 299.753906 190.5 297.960938 191.449219 296.269531 192.53125 C 298.480469 194.144531 300.992188 195.371094 303.625 196.121094 C 304.476562 204.320312 307.570312 212.394531 313.101562 218.519531 C 314.472656 216.613281 315.203125 214.75 316.578125 212.832031 C 312.136719 206.394531 309.171875 198.71875 308.214844 190.953125 C 305.898438 189.734375 303.101562 189.019531 300.519531 188.644531 Z M 319.027344 193.054688 C 316.492188 192.949219 313.949219 192.835938 311.414062 192.730469 C 310.882812 192.707031 310.316406 192.695312 309.863281 192.976562 C 309.460938 193.226562 309.226562 193.679688 309.113281 194.152344 C 308.6875 195.9375 309.964844 197.792969 311.621094 198.59375 C 313.277344 199.398438 315.203125 199.378906 317.03125 199.257812 C 318.914062 199.125 323.699219 199.03125 324.179688 196.609375 C 324.699219 193.898438 320.839844 193.132812 319.027344 193.054688 Z M 316.859375 191.269531 C 317.78125 191.949219 319.210938 192.0625 319.996094 191.222656 C 320.867188 190.292969 320.527344 188.792969 320.136719 187.582031 C 318.503906 182.554688 317.234375 177.152344 315.132812 172.316406 C 309.355469 175.140625 313.277344 184.027344 315.003906 188.425781 C 315.429688 189.492188 315.945312 190.589844 316.859375 191.269531 Z M 337.074219 183.175781 C 334.957031 173.929688 332.699219 165.59375 330.582031 156.347656 C 327.253906 158.867188 324.1875 161.722656 321.441406 164.878906 C 320.160156 166.351562 318.933594 167.910156 318.183594 169.714844 C 316.886719 172.832031 317.121094 176.421875 318.148438 179.636719 C 319.175781 182.851562 321.050781 186.292969 322.800781 189.1875 C 321.902344 183.425781 322.277344 177.503906 323.324219 171.761719 C 324.648438 176.664062 327.339844 181.203125 331.019531 184.707031 C 329.046875 179.539062 328.109375 173.972656 328.289062 168.441406 C 330.871094 173.554688 333.804688 178.476562 337.074219 183.175781 Z M 347.292969 174.785156 C 346.363281 174.410156 345.34375 174.339844 344.347656 174.269531 C 343.035156 174.183594 341.71875 174.09375 340.402344 174.007812 C 339.636719 173.957031 338.851562 173.914062 338.101562 174.121094 C 337.359375 174.332031 336.664062 174.851562 336.457031 175.59375 C 336.140625 176.710938 337.03125 177.824219 338.007812 178.453125 C 339.933594 179.679688 350.316406 181.25 349.289062 176.875 C 349.054688 175.898438 348.21875 175.160156 347.292969 174.785156 Z M 353.464844 164.554688 C 347.191406 161.488281 341.824219 156.59375 338.199219 150.613281 C 337.945312 150.195312 335.515625 151.84375 335.3125 152.21875 C 334.746094 153.261719 335.191406 153.910156 335.582031 155.015625 C 336.367188 157.253906 337.621094 159.398438 338.980469 161.324219 C 341.753906 165.226562 345.472656 168.46875 349.769531 170.601562 C 351.207031 171.316406 352.785156 171.917969 354.378906 171.699219 C 355.964844 171.480469 357.507812 170.183594 357.472656 168.582031 C 357.429688 166.578125 355.257812 165.425781 353.464844 164.554688 Z M 348.296875 159.660156 C 348.234375 157.871094 348.148438 155.914062 348.90625 154.238281 C 349.472656 152.984375 351.128906 151.90625 351.058594 150.414062 C 350.917969 147.609375 345.359375 145.960938 343.164062 145.394531 C 342.503906 145.222656 341.761719 145.089844 341.167969 145.429688 C 340.238281 145.953125 340.183594 147.269531 340.359375 148.324219 C 341.132812 153.027344 344.140625 157.316406 348.296875 159.660156 Z M 348.296875 159.660156 " fill-opacity="1" fill-rule="nonzero"/><path fill="#ffde59" d="M 120.015625 239.875 C 144.394531 238.140625 165.636719 233.113281 184.007812 226.179688 C 172.042969 236.730469 149.476562 254.914062 124.554688 266.1875 L 114.996094 260.839844 C 119.066406 253.421875 119.867188 244.050781 120.015625 239.875 Z M 287.921875 132.738281 C 288.785156 129.652344 289.523438 127.066406 290.386719 123.980469 C 238.167969 107.0625 184.484375 92.257812 131.019531 79.808594 C 119.648438 89.085938 107.765625 97.042969 94.746094 103.8125 C 92.261719 108.769531 89.605469 113.96875 87.121094 118.917969 C 103.085938 121.226562 119.613281 119.484375 134.742188 113.890625 C 130.402344 118.691406 124.25 122.054688 118.054688 123.929688 C 125.285156 124.007812 132.535156 122.980469 139.488281 121 C 124.582031 127.988281 108.050781 131.777344 91.59375 131.308594 C 94.390625 136.066406 97.890625 139.636719 103.136719 141.378906 C 99.3125 142.441406 94.300781 142.582031 90.652344 141.023438 C 84.585938 154.125 75.839844 166.238281 67.1875 177.789062 C 91.984375 178.660156 117.878906 169.519531 136.257812 152.855469 C 133.214844 161.175781 127.613281 168.328125 120.738281 173.921875 C 136.359375 170.75 151.617188 164.320312 164.445312 154.847656 C 160.070312 159.796875 155.816406 164.867188 151.445312 169.816406 C 158.433594 168.285156 164.828125 165.609375 171.023438 162.027344 C 156.472656 180.628906 135.140625 194.859375 112.453125 201.410156 C 153.734375 205.949219 197.347656 189.273438 225.359375 158.613281 C 222.1875 159.5 218.222656 160.84375 215.050781 161.730469 C 218.128906 159.25 221.480469 156.15625 224.558594 153.683594 C 224.957031 154.179688 225.140625 154.632812 225.542969 155.128906 C 236.828125 147.90625 246.742188 139.027344 254.957031 128.449219 C 256.230469 128.738281 257.503906 129 258.777344 129.25 C 235.632812 164.617188 202.566406 193.421875 164.332031 211.4375 C 207.863281 199.648438 246.4375 169.90625 269.023438 130.882812 C 275.289062 131.699219 281.597656 132.222656 287.921875 132.738281 Z M 112.148438 231.929688 C 110.855469 227.765625 110.402344 223.59375 109.113281 219.425781 C 107.433594 223.09375 106.019531 226.789062 104.339844 230.457031 C 102.089844 215.871094 100.707031 201.3125 98.457031 186.738281 C 91.660156 198.308594 84.890625 209.957031 78.09375 221.527344 C 78.015625 215.777344 78.976562 209.609375 78.894531 203.859375 C 75.429688 209.667969 72.5 214.757812 69.03125 220.570312 C 52.738281 224.105469 34.761719 225.707031 18.113281 224.804688 C 38.414062 232.546875 58.664062 237.628906 80.394531 237.933594 C 81.46875 235.050781 82.800781 232.285156 83.863281 229.402344 C 86.242188 229.308594 89.5 229.664062 91.871094 229.570312 C 92.933594 232.261719 94.695312 235.414062 95.757812 238.105469 C 117.976562 237.835938 140.097656 234.675781 161.804688 229.898438 C 145.433594 232.773438 128.667969 233.757812 112.148438 231.929688 Z M 306.847656 228.53125 C 300.566406 223.503906 294.222656 218.417969 289.289062 212.066406 C 287.871094 210.234375 286.535156 208.214844 286.238281 205.914062 C 285.945312 203.613281 286.988281 201 289.148438 200.164062 C 287.425781 198.5 286.195312 197.15625 284.21875 195.808594 C 280.515625 198.265625 279.226562 203.335938 280.132812 207.683594 C 281.039062 212.03125 283.730469 215.792969 286.625 219.15625 C 289.296875 222.265625 292.21875 225.1875 295.335938 227.851562 C 290.570312 226.640625 285.890625 224.410156 282.363281 220.988281 C 284.375 225.464844 287.222656 229.898438 291.101562 232.90625 C 289.761719 234.640625 287.949219 236.304688 286.605469 238.046875 C 291.730469 242.839844 296.714844 247.585938 301.835938 252.378906 C 306.296875 246.132812 310.699219 240.382812 315.167969 234.132812 C 312.328125 232.601562 309.382812 230.5625 306.847656 228.53125 Z M 306.847656 228.53125 " fill-opacity="1" fill-rule="nonzero"/><path fill="#e3cd69" d="M 117.332031 237.523438 C 141.753906 236.078125 166.535156 231.539062 189.347656 222.695312 C 187.210938 227.566406 182.847656 231.050781 178.4375 234.03125 C 174.027344 237 169.59375 239.351562 166.1875 243.429688 C 157.273438 245.828125 147.792969 246.925781 138.722656 245.199219 C 140.734375 247.082031 142.878906 249.03125 145.433594 250.078125 C 135.941406 250.128906 126.445312 247.378906 118.457031 242.253906 C 118.117188 240.597656 117.679688 239.160156 117.332031 237.523438 Z M 20.105469 225.457031 L 40.417969 204.710938 L 40.417969 214.390625 L 64.71875 171.742188 L 53.425781 183.226562 L 83.828125 126.246094 Z M 20.105469 225.457031 " fill-opacity="1" fill-rule="nonzero"/><path fill="#012130" d="M 363.796875 159.117188 C 362.367188 156.140625 359.867188 152.871094 356.757812 149.917969 C 353.65625 146.980469 350.257812 144.664062 347.191406 143.390625 C 341.777344 141.144531 339.035156 142.851562 337.882812 144.0625 L 306.769531 176.925781 C 312.09375 114.195312 333.214844 86.898438 333.433594 86.628906 L 335.671875 83.839844 L 332.628906 81.976562 C 284.558594 52.40625 262.609375 9.324219 262.390625 8.886719 L 261.511719 7.152344 L 101.273438 7.152344 L 100.390625 8.886719 C 100.175781 9.324219 78.277344 52.371094 30.164062 81.96875 L 27.128906 83.832031 L 29.351562 86.621094 C 29.535156 86.847656 47.378906 109.875 54.386719 162.039062 L 11.472656 228.855469 L 15.714844 229.925781 C 28.742188 233.226562 41.777344 235.867188 54.457031 237.757812 C 53.132812 259.234375 53.277344 284.242188 69.835938 310.195312 C 87.992188 338.652344 122.996094 365.050781 179.996094 393.277344 L 181.402344 393.96875 L 182.804688 393.277344 C 233.261719 368.300781 267.203125 344.078125 286.546875 319.246094 C 305.140625 295.382812 308.300781 273.585938 308.765625 257.03125 C 315.097656 259.609375 319.492188 259.445312 322.007812 256.742188 L 327.96875 250.453125 C 334.207031 243.867188 322.984375 228.460938 315.332031 219.453125 L 363.640625 168.421875 C 364.78125 167.230469 366.324219 164.40625 363.796875 159.117188 Z M 325.207031 199.875 L 317.425781 208.082031 C 314.460938 203.691406 312.796875 198.875 311.867188 195.199219 C 315.195312 195.710938 318.246094 195.824219 320.308594 195.824219 C 320.859375 195.824219 321.355469 195.816406 321.78125 195.808594 C 322.835938 197.21875 323.976562 198.585938 325.207031 199.875 Z M 305.820312 187.101562 L 314.445312 178 C 314.914062 181.109375 315.917969 185.152344 317.984375 189.464844 C 314.6875 189.316406 309.835938 188.785156 305.820312 187.101562 Z M 235.867188 340.898438 L 237.507812 327.558594 L 238.21875 321.503906 C 238.445312 319.777344 238.785156 318.097656 239.363281 315.894531 C 241.140625 309.261719 244.207031 302.414062 249 294.347656 C 252.605469 288.300781 257.066406 282.070312 263.035156 274.726562 C 267.996094 268.636719 273.378906 261.449219 279.058594 255.332031 C 279.058594 255.332031 265.832031 265.1875 259.734375 271.824219 C 258.664062 272.765625 236.800781 292.117188 224.820312 315.839844 C 225.910156 311.683594 227.695312 306.28125 230.535156 300.925781 L 232.992188 296.28125 L 229.167969 299.886719 C 229.011719 300.035156 213.65625 314.796875 213.5 340.070312 L 207.070312 346.046875 L 212.671875 357.984375 L 205.535156 352.328125 L 211.105469 371.113281 C 201.957031 376.375 191.953125 381.707031 181.367188 386.980469 C 176.347656 384.46875 171.824219 382.152344 167.589844 379.914062 L 170.082031 315.25 L 153.507812 309.578125 L 156.042969 296.976562 L 124.03125 272.363281 C 145.753906 263.023438 165.910156 248.300781 179.125 237.445312 C 183.109375 235.78125 187.238281 233.578125 191.1875 231.023438 C 188.5625 233.757812 185.773438 236.199219 182.941406 238.230469 L 182.601562 238.472656 L 182.585938 238.890625 C 182.359375 243.1875 180.519531 247.296875 179.011719 249.992188 L 177.765625 252.222656 L 180.121094 251.210938 C 192.273438 246 203.15625 238.742188 211.914062 230.039062 C 209.832031 234.039062 207.394531 238.039062 204.902344 241.503906 L 201.570312 246.132812 L 206.136719 242.707031 C 218.476562 233.445312 228.496094 221.222656 235.222656 207.246094 L 240.816406 228.277344 C 240.3125 230.605469 239.578125 233.238281 238.699219 235.886719 L 238.648438 236.023438 C 237.714844 238.683594 236.746094 241.425781 235.597656 244.050781 L 235.390625 244.546875 C 234.890625 245.695312 234.378906 246.890625 233.804688 248.011719 C 233.542969 248.519531 233.296875 249.023438 233.054688 249.539062 C 232.671875 250.332031 232.277344 251.160156 231.832031 251.941406 C 231.546875 252.457031 231.277344 252.980469 230.996094 253.503906 C 230.578125 254.277344 230.167969 255.054688 229.742188 255.800781 L 227.449219 259.601562 C 226.996094 260.394531 226.484375 261.144531 225.945312 261.925781 C 225.636719 262.371094 225.332031 262.816406 225.046875 263.261719 L 224.890625 263.488281 C 224.113281 264.65625 223.371094 265.761719 222.511719 266.851562 L 219.878906 270.386719 L 217.039062 273.847656 C 215.871094 275.34375 214.554688 276.78125 213.28125 278.167969 C 212.570312 278.941406 211.855469 279.726562 211.175781 280.511719 C 210.101562 281.679688 208.953125 282.835938 207.835938 283.960938 C 206.871094 284.9375 205.867188 285.9375 204.902344 286.976562 L 199.523438 292.707031 L 206.023438 288.292969 C 207.148438 287.523438 208.273438 286.714844 209.363281 285.929688 L 209.753906 285.644531 C 210.101562 285.382812 210.449219 285.136719 210.808594 284.875 C 211.6875 284.25 212.601562 283.59375 213.421875 282.855469 L 216.847656 279.910156 C 217.902344 279.054688 218.859375 278.097656 219.773438 277.175781 L 220.203125 276.738281 C 224.976562 272.191406 228.878906 267.066406 232.078125 262.640625 C 235.519531 257.78125 238.613281 252.371094 241.261719 246.59375 C 241.941406 245.199219 242.535156 243.753906 243.109375 242.332031 C 243.570312 241.285156 243.945312 240.199219 244.3125 239.152344 C 244.449219 238.75 244.589844 238.359375 244.746094 237.933594 C 245.3125 236.179688 245.898438 234.316406 246.386719 232.382812 L 287.15625 246.652344 C 288.671875 247.863281 295.199219 253.320312 302.175781 262.683594 C 300.363281 288.441406 290.449219 319.910156 231.945312 358.339844 C 231.546875 356.902344 231.109375 355.414062 230.648438 353.941406 C 229.976562 351.796875 229.261719 349.664062 228.46875 347.433594 Z M 144.945312 348.695312 L 149.101562 348.398438 L 145.179688 347.007812 C 137.03125 344.113281 129.46875 338.5625 123.5625 331.203125 C 127.1875 333.117188 131.296875 335.035156 136.03125 337.011719 L 137.347656 337.5625 L 137.242188 336.140625 C 136.832031 330.738281 136.746094 325.171875 136.988281 319.585938 C 139.949219 320.128906 143.15625 320.78125 146.738281 321.582031 C 150.921875 322.574219 154.703125 323.59375 158.285156 324.691406 L 163.363281 326.242188 L 161.429688 376.59375 C 154.652344 372.910156 148.160156 369.195312 142.113281 365.546875 C 141.335938 362.085938 141.09375 358.609375 140.960938 354.472656 L 140.945312 353.84375 L 140.34375 353.664062 C 135.714844 352.269531 131.152344 350.011719 126.898438 347.050781 C 132.285156 348.601562 138.425781 349.167969 144.945312 348.695312 Z M 158.988281 323.125 C 155.792969 321.121094 152.167969 319.359375 147.90625 317.730469 C 144.507812 316.460938 140.777344 315.308594 136.179688 314.125 C 132.160156 313.113281 128.136719 312.261719 124.222656 311.605469 C 120.859375 311.015625 117.636719 310.570312 114.386719 310.238281 L 112.066406 299.964844 L 111.625 298.058594 L 82.164062 291 C 83.507812 287.691406 84.898438 284.710938 86.40625 281.929688 C 88.855469 277.453125 91.199219 273.644531 93.578125 270.273438 C 96.21875 266.464844 99.023438 262.796875 101.910156 259.355469 C 104.105469 256.742188 106.316406 254.261719 108.511719 251.984375 L 111.257812 256.125 C 110.640625 257.554688 109.949219 258.824219 109.191406 259.933594 L 107.265625 262.773438 L 110.132812 264.375 C 105.699219 270.316406 102.300781 277.15625 100.269531 284.222656 L 99.242188 287.8125 L 101.75 285.042969 C 102.882812 283.789062 104.0625 282.4375 105.203125 281.128906 C 104.253906 283.890625 103.546875 286.765625 103.144531 289.519531 L 103.023438 290.367188 L 103.859375 290.503906 C 109.410156 291.453125 114.316406 292.953125 118.863281 295.085938 L 119.796875 295.523438 L 120.066406 294.519531 C 120.320312 293.597656 120.539062 292.648438 120.738281 291.707031 C 121.582031 297.378906 123.109375 303.136719 125.214844 308.625 L 126.167969 311.09375 L 126.976562 308.175781 C 127.707031 305.523438 128.511719 302.625 129.425781 299.871094 C 129.496094 300.691406 129.574219 301.507812 129.644531 302.328125 C 129.824219 304.472656 130.019531 306.605469 130.226562 308.773438 L 130.324219 309.757812 L 131.28125 309.542969 C 136.257812 308.433594 141.902344 308.828125 146.886719 310.597656 L 146.257812 313.75 L 163.597656 319.683594 L 163.363281 325.851562 Z M 60.703125 238.664062 C 66.394531 239.414062 71.910156 240.007812 77.136719 240.425781 C 76.300781 254.949219 76.585938 267.25 80.480469 279.683594 C 78.503906 283.386719 76.691406 287.464844 74.941406 292.152344 L 73.722656 295.453125 L 88.5 298.980469 C 86.652344 302.421875 83.671875 308.285156 80.890625 315.074219 C 61.957031 290.488281 59.039062 267.476562 60.703125 238.664062 Z M 257.6875 13.476562 C 262.285156 21.789062 284.28125 58.609375 326.460938 85.566406 C 320.527344 94.558594 303.519531 125.121094 299.910156 184.183594 L 289.585938 195.09375 C 287.984375 193.882812 285.734375 192.234375 283.136719 190.511719 C 283.179688 188.3125 283.269531 186.199219 283.398438 184.054688 C 284.382812 167.160156 286.535156 151.007812 289.796875 136.046875 C 294.988281 126.671875 297.453125 120.296875 297.898438 119.101562 L 299.109375 115.773438 L 295.378906 114.882812 C 297.828125 107.113281 300.644531 99.734375 303.746094 92.945312 L 304.78125 90.664062 L 302.777344 89.140625 C 274.914062 67.890625 257.269531 43.851562 249.234375 31.417969 L 248.300781 29.980469 L 114.457031 29.980469 L 113.523438 31.417969 C 105.488281 43.851562 87.855469 67.890625 59.980469 89.140625 L 57.976562 90.664062 L 59.019531 92.953125 C 64.511719 104.917969 69.042969 118.675781 72.484375 133.84375 L 59.542969 153.988281 C 53.15625 114.066406 40.742188 92.328125 36.289062 85.574219 C 78.488281 58.617188 100.480469 21.800781 105.082031 13.488281 L 257.6875 13.488281 Z M 291.546875 202.175781 C 292.253906 205.582031 293.65625 210.199219 296.417969 215.621094 C 296.085938 215.324219 295.746094 215.027344 295.414062 214.714844 C 290.273438 209.835938 288.90625 205.816406 288.933594 204.9375 Z M 120.859375 240.6875 C 141.640625 239.144531 161.464844 235.09375 179.875 228.609375 C 167.765625 238.953125 147.105469 254.949219 124.605469 265.210938 L 116.179688 260.488281 C 119.78125 253.40625 120.652344 244.816406 120.859375 240.6875 Z M 117.878906 36.289062 L 244.878906 36.289062 C 254.671875 51.160156 271.574219 72.828125 296.984375 92.625 C 294.1875 98.984375 291.582031 105.980469 289.246094 113.429688 L 112.757812 71.136719 L 77.214844 126.472656 C 74.121094 114.195312 70.289062 102.816406 65.792969 92.625 C 91.226562 72.785156 108.113281 51.132812 117.878906 36.289062 Z M 280.585938 150.972656 C 278.929688 161.460938 277.761719 172.449219 277.089844 183.679688 C 277.039062 184.679688 276.988281 185.691406 276.941406 186.710938 C 268.980469 182.292969 263.132812 181.023438 259.542969 182.9375 C 258.949219 183.253906 258.410156 183.660156 257.921875 184.160156 L 251.945312 190.476562 C 248.640625 193.960938 249.84375 200.3125 255.507812 209.347656 C 256.285156 210.582031 257.144531 211.828125 257.878906 212.875 L 246.4375 224.976562 L 238.777344 196.171875 C 244.527344 191.609375 250.007812 186.738281 255.089844 181.691406 C 264.570312 172.273438 273.125 161.957031 280.585938 150.972656 Z M 83.574219 238.195312 L 85.25 234.449219 C 87.375 234.769531 89.414062 234.980469 91.3125 235.074219 L 91.871094 241.277344 L 94.675781 241.339844 C 96.472656 241.375 98.832031 241.417969 101.195312 241.417969 C 101.296875 241.417969 101.394531 241.417969 101.5 241.417969 L 104.949219 246.601562 C 102.371094 249.222656 99.792969 252.074219 97.074219 255.296875 C 94.050781 258.914062 91.128906 262.746094 88.394531 266.675781 C 87.253906 268.296875 86.109375 270.03125 84.925781 271.9375 C 82.6875 261.648438 82.757812 250.921875 83.574219 238.195312 Z M 297.855469 243.542969 C 292.433594 239.726562 286.683594 234.980469 281.175781 229.761719 C 272.648438 221.699219 265.441406 213.257812 260.867188 205.992188 C 256.109375 198.429688 256.257812 195.199219 256.542969 194.804688 L 257.066406 194.257812 C 257.949219 196.816406 259.429688 199.773438 261.492188 203.054688 C 266.3125 210.730469 273.882812 219.609375 282.808594 228.050781 C 288.191406 233.148438 293.882812 237.871094 299.292969 241.75 Z M 93.4375 112.890625 C 94.632812 112.949219 95.921875 112.976562 97.28125 112.976562 C 109.054688 112.976562 138.058594 110.605469 156.316406 88.929688 C 157.429688 92.003906 159.914062 100.152344 159.617188 111.050781 C 159.269531 123.902344 154.867188 143.332031 135.882812 162.917969 L 133.050781 165.84375 L 136.832031 164.335938 C 137.164062 164.207031 166.746094 152.199219 180.972656 130.847656 C 178.308594 138.652344 172.984375 151.226562 163.871094 161.445312 L 159.582031 166.246094 L 164.992188 162.75 C 165.140625 162.65625 177.472656 154.640625 185.269531 145.847656 C 179.789062 157.828125 164.355469 184.472656 131.160156 198.046875 L 124.136719 200.921875 L 131.628906 199.71875 C 133.449219 199.421875 176.617188 192.261719 210.800781 167.8125 L 214.710938 165.015625 L 196.605469 169.878906 C 205.648438 163.882812 224.367188 150.03125 234.953125 131.980469 C 233.785156 136.910156 231.625 144.035156 228.015625 149.359375 L 225.21875 153.5 L 229.253906 150.554688 C 229.394531 150.449219 243.152344 140.308594 251.367188 124.347656 L 285.535156 130.585938 C 279.105469 142.582031 267.933594 160.101562 250.523438 177.371094 C 223.355469 204.300781 174.820312 236.101562 97.65625 235.109375 L 94.40625 198.457031 L 78.453125 234.222656 C 60.292969 232.800781 41.140625 229.664062 21.5 224.898438 Z M 266.828125 199.703125 C 262.070312 192.128906 262.21875 188.898438 262.503906 188.507812 C 263.273438 187.757812 270.566406 188.664062 285.210938 199.710938 L 284.210938 200.765625 C 281.9375 203.167969 282.179688 207.046875 284.898438 211.691406 L 284.949219 211.796875 C 285.472656 212.667969 286.03125 213.503906 286.589844 214.242188 C 289.289062 218.101562 296.085938 226.910156 305.027344 232.234375 C 301.148438 231.808594 295.085938 230.484375 290.335938 226.433594 C 289.28125 225.484375 288.21875 224.507812 287.136719 223.476562 C 278.582031 215.375 271.367188 206.933594 266.828125 199.703125 Z M 301.277344 191.902344 C 302.4375 192.53125 303.710938 193.082031 305.0625 193.550781 C 305.730469 197.289062 307.710938 205.511719 313 212.753906 L 306.273438 219.863281 C 298.316406 208.144531 297.253906 199.25 297.140625 196.277344 Z M 320.328125 171.777344 L 328.804688 162.820312 C 329.761719 168.953125 332.125 177.535156 337.78125 186.582031 L 329.546875 195.277344 C 320.917969 186.003906 320.265625 175.359375 320.328125 171.777344 Z M 346.34375 177.535156 L 342.277344 181.832031 C 341.359375 180.265625 340.507812 178.660156 339.75 177.039062 C 341.925781 177.277344 344.140625 177.441406 346.34375 177.535156 Z M 342.625 148.585938 C 344.089844 148.75 347.964844 150.285156 352.460938 154.542969 C 352.773438 154.847656 353.089844 155.144531 353.394531 155.46875 L 353.628906 155.710938 C 353.847656 155.945312 354.066406 156.164062 354.292969 156.425781 C 354.386719 156.523438 354.464844 156.609375 354.597656 156.773438 L 354.761719 156.957031 C 354.867188 157.070312 354.960938 157.183594 355.058594 157.296875 L 356.398438 159.03125 C 358.097656 161.417969 358.71875 163.152344 358.855469 163.945312 C 357.523438 163.789062 353.742188 162.4375 349.089844 158.03125 C 344.429688 153.621094 342.859375 149.890625 342.625 148.585938 Z M 334.53125 156.792969 L 337.71875 153.421875 C 339.164062 156.433594 341.664062 159.695312 344.757812 162.613281 C 347.851562 165.539062 351.257812 167.867188 354.308594 169.136719 L 352.226562 171.34375 C 344.914062 171.394531 339.53125 170.722656 337.117188 170.339844 C 335.0625 164.015625 334.617188 158.988281 334.53125 156.792969 Z M 190.558594 204.78125 C 201.78125 199.929688 212.4375 193.882812 222.222656 186.808594 C 232.171875 179.609375 241.242188 171.386719 249.199219 162.359375 C 253.113281 157.933594 256.882812 153.105469 260.40625 148 C 263.417969 143.46875 266.476562 136.746094 269.039062 130.890625 C 269.039062 130.890625 254.609375 149.253906 245.339844 158.742188 C 240.441406 163.640625 236.339844 167.464844 232.410156 170.785156 C 227.859375 174.730469 223.199219 178.398438 218.527344 181.703125 C 216.820312 182.992188 215.015625 184.21875 213.265625 185.40625 C 212.601562 185.847656 211.949219 186.300781 211.324219 186.738281 L 209.570312 187.851562 C 207.699219 189.054688 205.761719 190.292969 203.792969 191.433594 C 198.921875 194.484375 193.6875 197.191406 188.632812 199.804688 L 188.328125 199.964844 C 178.316406 204.910156 167.84375 210.183594 155.714844 214.382812 C 155.703125 214.390625 179.058594 209.695312 190.558594 204.78125 Z M 202.320312 267.851562 L 202.914062 267.242188 C 205.371094 264.671875 207.523438 262.207031 209.464844 259.714844 L 209.464844 259.707031 C 213.648438 254.269531 216.59375 249.546875 218.746094 244.859375 L 220.925781 240.101562 L 216.515625 244.738281 C 212.742188 248.710938 209.179688 252.457031 205.46875 256.195312 C 203.382812 258.285156 201.320312 260.316406 199.316406 262.230469 C 197.765625 262.988281 195.917969 263.808594 193.957031 264.609375 C 193 264.992188 192.039062 265.367188 191.039062 265.726562 C 190.097656 266.101562 189.128906 266.441406 188.136719 266.78125 C 184.640625 267.992188 180.835938 269.132812 176.179688 270.359375 C 171.867188 271.425781 167.84375 272.261719 163.878906 272.941406 L 144.324219 276.292969 L 151.390625 276.824219 C 153.4375 276.984375 155.636719 277.121094 157.890625 277.148438 L 159.113281 277.128906 C 160.835938 277.113281 162.613281 277.085938 164.367188 276.9375 L 167.617188 276.6875 L 170.796875 276.304688 C 172.398438 276.128906 174.003906 275.867188 175.5625 275.613281 C 176.113281 275.527344 176.660156 275.433594 177.226562 275.34375 C 180.527344 274.777344 183.867188 274.046875 187.1875 273.167969 C 185.164062 274.847656 182.960938 276.617188 180.460938 278.566406 C 179.351562 279.394531 178.210938 280.25 177.097656 281.128906 C 176.484375 281.574219 175.859375 282.011719 175.230469 282.445312 C 174.699219 282.8125 174.160156 283.1875 173.628906 283.570312 L 171.945312 284.796875 L 170.152344 285.964844 C 169.011719 286.714844 167.78125 287.523438 166.5625 288.421875 L 162.632812 291.28125 L 167.300781 289.964844 C 168.625 289.589844 169.960938 289.152344 171.25 288.726562 L 171.457031 288.65625 C 172.242188 288.394531 172.929688 288.152344 173.585938 287.898438 L 175.589844 287.027344 C 176.042969 286.808594 176.496094 286.609375 176.957031 286.402344 C 177.828125 286 178.699219 285.597656 179.578125 285.164062 C 180.859375 284.464844 182.125 283.742188 183.414062 283.003906 C 188.667969 279.824219 193.40625 276.304688 197.503906 272.539062 C 199.027344 271.164062 200.550781 269.679688 202.320312 267.851562 Z M 150.3125 123.378906 L 151.183594 121.097656 L 149.066406 122.316406 C 130.324219 133.09375 101.332031 135.863281 101.046875 135.890625 L 97.925781 136.179688 L 100.75 137.546875 C 108.085938 141.101562 116.949219 141.578125 122.28125 141.476562 C 109.984375 146.277344 96.863281 145.421875 96.722656 145.414062 L 96.191406 145.378906 L 81.03125 170.6875 L 82.921875 170.347656 C 135.515625 160.835938 150.171875 123.753906 150.3125 123.378906 Z M 274.652344 315.066406 C 281.875 305.21875 285.707031 292.953125 285.1875 281.410156 L 285.054688 278.550781 L 283.574219 281 C 274.921875 295.269531 263.046875 307.773438 249.234375 317.140625 L 245.496094 319.675781 L 249.90625 318.707031 C 254.472656 317.714844 258.820312 316.136719 262.886719 314.019531 C 257.207031 321.757812 250.0625 328.726562 244.269531 334.101562 L 241.707031 336.480469 L 245.085938 335.582031 C 256.386719 332.585938 267.445312 324.917969 274.652344 315.066406 Z M 274.652344 315.066406 " fill-opacity="1" fill-rule="nonzero"/></svg>