<svg xmlns="http://www.w3.org/2000/svg" xmlns:xlink="http://www.w3.org/1999/xlink" width="500" zoomAndPan="magnify" viewBox="0 0 375 374.999991" height="500" preserveAspectRatio="xMidYMid meet" version="1.0"><rect x="-37.5" width="450" fill="#ffffff" y="-37.499999" height="449.999989" fill-opacity="1"/><rect x="-37.5" width="450" fill="#ffffff" y="-37.499999" height="449.999989" fill-opacity="1"/><rect x="-37.5" width="450" fill="#ffffff" y="-37.499999" height="449.999989" fill-opacity="1"/><path fill="#393536" d="M 187.300781 301.597656 C 187.304688 301.492188 187.308594 301.394531 187.3125 301.292969 C 187.3125 301.292969 187.304688 301.398438 187.300781 301.597656 " fill-opacity="1" fill-rule="nonzero"/><path fill="#393536" d="M 242.640625 150.800781 C 236.4375 145.355469 227.890625 144.292969 220.785156 147.363281 C 224.273438 147 227.894531 148.035156 230.734375 150.527344 C 236.132812 155.273438 236.667969 163.5 231.921875 168.902344 C 227.179688 174.304688 218.957031 174.839844 213.554688 170.09375 C 210.714844 167.597656 209.222656 164.140625 209.136719 160.636719 C 207.007812 168.078125 209.160156 176.417969 215.363281 181.867188 C 223.9375 189.398438 236.996094 188.550781 244.527344 179.976562 C 252.0625 171.398438 251.214844 158.335938 242.640625 150.800781 " fill-opacity="1" fill-rule="nonzero"/><path fill="#393536" d="M 166.757812 179.976562 C 174.289062 171.398438 173.441406 158.335938 164.867188 150.800781 C 158.664062 145.355469 150.117188 144.292969 143.011719 147.363281 C 146.496094 147 150.121094 148.035156 152.960938 150.527344 C 158.363281 155.273438 158.894531 163.5 154.152344 168.902344 C 149.40625 174.304688 141.183594 174.839844 135.78125 170.09375 C 132.941406 167.597656 131.449219 164.140625 131.359375 160.636719 C 129.230469 168.078125 131.390625 176.417969 137.589844 181.867188 C 146.167969 189.398438 159.226562 188.550781 166.757812 179.976562 " fill-opacity="1" fill-rule="nonzero"/><path fill="#f5bb96" d="M 212.636719 283.308594 C 206.246094 282.324219 199.953125 280.832031 193.867188 279.386719 C 186.851562 277.722656 180.226562 276.152344 173.429688 275.28125 C 158.535156 273.382812 143.035156 277.363281 126.425781 287.414062 C 129.066406 290.234375 133.082031 294.175781 138.292969 298.257812 L 138.296875 298.257812 C 138.296875 298.257812 156.675781 313.105469 172.257812 302.035156 C 172.257812 302.035156 170.808594 307.984375 160.726562 311.4375 C 160.800781 311.46875 160.875 311.5 160.953125 311.527344 C 164.921875 313.125 169.328125 313.429688 173.453125 312.292969 C 175.410156 311.753906 176.863281 311.050781 177.503906 310.152344 C 177.503906 310.152344 177.492188 312.675781 176.425781 315.9375 L 176.449219 315.941406 C 178.167969 316.234375 179.945312 315.875 181.394531 314.910156 C 184.347656 312.953125 187.460938 309.113281 187.660156 301.597656 C 187.664062 301.398438 187.675781 301.292969 187.675781 301.292969 C 187.671875 301.394531 187.664062 301.492188 187.660156 301.597656 C 187.640625 302.699219 187.746094 306.648438 190.09375 310.929688 C 192.089844 314.574219 196.226562 316.539062 200.3125 315.804688 L 200.371094 315.792969 C 199.351562 312.605469 199.339844 310.152344 199.339844 310.152344 C 199.894531 310.929688 201.054688 311.558594 202.628906 312.066406 C 206.679688 313.367188 211.070312 313.132812 215.027344 311.558594 C 215.246094 311.46875 215.46875 311.378906 215.6875 311.289062 C 205.996094 307.816406 204.585938 302.035156 204.585938 302.035156 C 215.515625 309.796875 227.824219 304.8125 234.195312 301.140625 C 240.007812 297.128906 245.953125 292.234375 252.003906 286.328125 C 255.050781 283.003906 258.035156 279.160156 260.460938 274.867188 C 246.941406 282.890625 230.15625 286 212.636719 283.308594 " fill-opacity="1" fill-rule="nonzero"/><path fill="#f5bb96" d="M 257.496094 122.636719 C 257.15625 122.640625 256.816406 122.648438 256.46875 122.660156 C 256.46875 122.660156 264.664062 120.214844 272.832031 119.113281 L 272.714844 119.003906 C 265.828125 112.234375 256.558594 108.421875 246.90625 108.164062 C 238.5 107.941406 229.65625 109.371094 221.367188 113.800781 C 221.367188 113.800781 225.398438 109.203125 232.015625 104.476562 C 211.421875 106.371094 194.242188 120.394531 187.363281 139.527344 C 180.269531 119.789062 162.210938 105.488281 140.746094 104.332031 C 147.480469 109.113281 151.59375 113.800781 151.59375 113.800781 C 144.886719 110.214844 137.816406 108.59375 130.902344 108.226562 C 120.332031 107.660156 109.972656 111.671875 102.6875 119.351562 L 102.566406 119.480469 C 109.847656 120.679688 116.492188 122.660156 116.492188 122.660156 C 116.394531 122.65625 116.296875 122.652344 116.199219 122.648438 C 103.847656 122.320312 92.882812 130.761719 90.152344 142.816406 C 88.261719 151.167969 88.472656 160.179688 91.292969 169.089844 C 100.476562 198.101562 124.355469 223.96875 124.355469 223.96875 C 124.355469 223.96875 117.382812 242.238281 124.355469 253.0625 C 124.355469 253.0625 118.015625 247.691406 114 238.222656 C 113.800781 238.582031 113.507812 239.148438 113.144531 239.90625 L 113.109375 239.984375 C 110.488281 245.355469 110.226562 251.621094 112.5625 257.117188 C 113.746094 259.902344 115.371094 262.269531 117.574219 263.890625 L 108.222656 258.144531 C 108.21875 258.257812 108.207031 258.375 108.203125 258.484375 C 107.730469 265.710938 108.980469 273.96875 114.253906 281.785156 L 114.257812 281.785156 C 135.460938 267.382812 155.394531 261.566406 174.863281 264.054688 C 182.257812 265 189.488281 266.714844 196.480469 268.375 C 202.34375 269.765625 208.414062 271.203125 214.355469 272.117188 C 230.542969 274.605469 245.890625 271.320312 257.617188 263.230469 C 259.09375 261.9375 260.28125 260.289062 261.230469 258.394531 C 264.160156 252.546875 264.050781 245.625 261.164062 239.753906 C 260.910156 239.25 260.652344 238.742188 260.382812 238.230469 C 256.363281 247.695312 250.03125 253.0625 250.03125 253.0625 C 257.003906 242.238281 250.03125 223.96875 250.03125 223.96875 C 250.371094 223.601562 250.703125 223.222656 251.035156 222.84375 C 267.125 204.589844 282.273438 181.449219 285.945312 157.011719 C 286.105469 155.949219 286.222656 154.894531 286.304688 153.847656 C 287.589844 137.039062 274.351562 122.46875 257.496094 122.636719 " fill-opacity="1" fill-rule="nonzero"/><path fill="#f5bb96" d="M 137.953125 181.867188 C 131.75 176.417969 129.597656 168.078125 131.726562 160.636719 C 131.8125 164.140625 133.304688 167.597656 136.144531 170.09375 C 141.546875 174.839844 149.769531 174.304688 154.511719 168.902344 C 159.257812 163.5 158.722656 155.273438 153.324219 150.527344 C 150.484375 148.035156 146.863281 147 143.375 147.363281 C 150.480469 144.292969 159.027344 145.355469 165.230469 150.800781 C 173.804688 158.335938 174.652344 171.398438 167.117188 179.976562 C 159.585938 188.550781 146.527344 189.398438 137.953125 181.867188 " fill-opacity="1" fill-rule="nonzero"/><path fill="#f5bb96" d="M 162.441406 223.75 C 158.757812 223.75 156.8125 219.375 159.296875 216.65625 C 160.363281 215.484375 161.871094 214.359375 164.007812 213.460938 C 172.257812 209.992188 183.382812 223.75 183.382812 223.75 L 162.441406 223.75 " fill-opacity="1" fill-rule="nonzero"/><path fill="#f5bb96" d="M 212.90625 223.75 L 191.96875 223.75 C 191.96875 223.75 203.085938 209.992188 211.339844 213.460938 C 213.476562 214.359375 214.988281 215.484375 216.054688 216.65625 C 218.53125 219.375 216.585938 223.75 212.90625 223.75 " fill-opacity="1" fill-rule="nonzero"/><path fill="#f5bb96" d="M 244.890625 179.976562 C 237.359375 188.550781 224.300781 189.398438 215.726562 181.867188 C 209.523438 176.417969 207.367188 168.078125 209.496094 160.636719 C 209.582031 164.140625 211.074219 167.597656 213.917969 170.09375 C 219.320312 174.839844 227.542969 174.304688 232.289062 168.902344 C 237.03125 163.5 236.496094 155.273438 231.09375 150.527344 C 228.253906 148.035156 224.632812 147 221.148438 147.363281 C 228.253906 144.292969 236.796875 145.355469 243 150.800781 C 251.574219 158.335938 252.421875 171.398438 244.890625 179.976562 " fill-opacity="1" fill-rule="nonzero"/><path fill="#393536" d="M 166.757812 179.976562 C 174.289062 171.398438 173.441406 158.335938 164.867188 150.800781 C 158.664062 145.355469 150.117188 144.292969 143.011719 147.363281 C 146.5 147 150.121094 148.035156 152.960938 150.527344 C 158.363281 155.273438 158.894531 163.5 154.152344 168.902344 C 149.40625 174.304688 141.183594 174.839844 135.78125 170.09375 C 132.941406 167.597656 131.449219 164.140625 131.359375 160.636719 C 129.230469 168.078125 131.390625 176.417969 137.589844 181.867188 C 146.167969 189.398438 159.226562 188.550781 166.757812 179.976562 " fill-opacity="1" fill-rule="nonzero"/><path fill="#393536" d="M 163.644531 213.460938 C 161.511719 214.359375 160 215.484375 158.933594 216.65625 C 156.453125 219.375 158.398438 223.75 162.078125 223.75 L 183.015625 223.75 C 183.015625 223.75 171.898438 209.992188 163.644531 213.460938 " fill-opacity="1" fill-rule="nonzero"/><path fill="#393536" d="M 242.640625 150.800781 C 236.4375 145.355469 227.890625 144.292969 220.785156 147.363281 C 224.273438 147 227.894531 148.035156 230.734375 150.527344 C 236.132812 155.273438 236.667969 163.5 231.921875 168.902344 C 227.179688 174.304688 218.957031 174.839844 213.554688 170.09375 C 210.714844 167.597656 209.222656 164.140625 209.136719 160.636719 C 207.007812 168.078125 209.160156 176.417969 215.363281 181.867188 C 223.9375 189.398438 236.996094 188.550781 244.527344 179.976562 C 252.0625 171.398438 251.214844 158.335938 242.640625 150.800781 " fill-opacity="1" fill-rule="nonzero"/><path fill="#393536" d="M 210.976562 213.460938 C 202.726562 209.992188 191.605469 223.75 191.605469 223.75 L 212.542969 223.75 C 216.226562 223.75 218.171875 219.375 215.691406 216.65625 C 214.625 215.484375 213.113281 214.359375 210.976562 213.460938 " fill-opacity="1" fill-rule="nonzero"/><path fill="#393536" d="M 187.300781 301.597656 C 187.304688 301.492188 187.308594 301.394531 187.3125 301.292969 C 187.3125 301.292969 187.304688 301.398438 187.300781 301.597656 " fill-opacity="1" fill-rule="nonzero"/><path fill="#957768" d="M 251.167969 222.84375 C 267.253906 204.589844 282.40625 181.449219 286.078125 157.011719 C 286.234375 155.949219 286.351562 154.894531 286.433594 153.847656 C 287.6875 137.457031 275.128906 123.203125 258.875 122.660156 L 257.960938 122.660156 C 271.53125 123.140625 270.863281 138.339844 270.863281 138.34375 C 271.058594 141.300781 270.769531 144.859375 269.90625 149.101562 L 269.894531 149.144531 C 269.585938 151.898438 268.878906 154.820312 267.628906 157.867188 C 254.105469 200.152344 214.796875 193.058594 214.789062 193.054688 C 210.90625 192.515625 206.96875 191.324219 203.023438 189.375 C 200.3125 188.171875 198.820312 187.007812 198.820312 187.007812 L 198.820312 208.316406 C 198.820312 208.316406 212.226562 201.179688 222.246094 207.546875 C 225.027344 208.78125 226.683594 210.65625 227.539062 212.886719 L 227.554688 212.902344 L 227.546875 212.902344 C 231.035156 222.054688 221.003906 237.070312 220.058594 237.382812 C 220.058594 237.382812 232.601562 233.363281 235.226562 221.742188 C 235.226562 221.742188 246.921875 241.375 215.324219 246.578125 C 210.914062 247.304688 206.839844 249.554688 204.097656 253.078125 C 200.417969 257.800781 199.535156 263.832031 203.746094 270.03125 C 207.324219 270.835938 210.925781 271.570312 214.484375 272.117188 C 230.671875 274.605469 246.015625 271.320312 257.75 263.230469 C 259.222656 261.9375 260.410156 260.289062 261.359375 258.394531 C 264.292969 252.546875 264.179688 245.625 261.289062 239.753906 C 261.042969 239.25 260.78125 238.742188 260.511719 238.230469 C 256.496094 247.695312 250.160156 253.0625 250.160156 253.0625 C 257.132812 242.238281 250.160156 223.96875 250.160156 223.96875 C 250.5 223.601562 250.832031 223.222656 251.167969 222.84375 " fill-opacity="1" fill-rule="nonzero"/><path fill="#957768" d="M 262.195312 119.28125 C 262.484375 119.851562 262.757812 120.421875 263.015625 120.988281 C 265.890625 120.320312 269.429688 119.589844 272.957031 119.113281 L 272.84375 119.003906 C 265.957031 112.234375 256.6875 108.421875 247.039062 108.164062 C 242.863281 108.050781 238.582031 108.351562 234.316406 109.21875 C 252.949219 106.761719 260.027344 115.46875 262.195312 119.28125 " fill-opacity="1" fill-rule="nonzero"/><path fill="#957768" d="M 212.765625 283.308594 C 206.375 282.324219 200.082031 280.832031 194 279.386719 C 194 279.386719 214.199219 285.773438 224.664062 299.433594 C 216.070312 292.125 209.191406 295.433594 209.191406 295.433594 C 216.515625 298.304688 218.964844 302.621094 219.652344 306.046875 C 225.527344 305.570312 230.824219 303.15625 234.324219 301.140625 C 240.136719 297.128906 246.082031 292.234375 252.132812 286.328125 C 255.179688 283.003906 258.164062 279.160156 260.589844 274.867188 C 247.070312 282.890625 230.285156 286 212.765625 283.308594 " fill-opacity="1" fill-rule="nonzero"/><path fill="#f5bb96" d="M 62.269531 155.273438 C 66.414062 150.539062 57.1875 143.542969 47.601562 147.632812 C 47.601562 147.632812 53.109375 137.777344 66.414062 143.535156 L 52.214844 134.5625 C 52.214844 134.5625 53.332031 128.980469 63.164062 130.832031 C 59.425781 129.589844 36.578125 122.921875 35.902344 145.664062 L 32.210938 142.378906 C 32.210938 142.378906 29.457031 152.722656 35.535156 161.390625 C 40.835938 167.105469 50.160156 171.265625 66.414062 170.066406 C 66.414062 170.066406 58.128906 160.007812 62.269531 155.273438 " fill-opacity="1" fill-rule="nonzero"/><path fill="#f5bb96" d="M 339.945312 140.167969 L 336.253906 143.191406 C 336.199219 124.953125 313.925781 129.898438 310.144531 130.863281 C 310.027344 130.957031 309.957031 131.015625 309.957031 131.015625 C 320.605469 128.644531 321.789062 134.5625 321.789062 134.5625 L 307.589844 143.535156 C 320.894531 137.777344 326.402344 147.632812 326.402344 147.632812 C 316.816406 143.542969 307.589844 150.539062 311.734375 155.273438 C 315.875 160.007812 307.589844 170.066406 307.589844 170.066406 C 319.136719 170.917969 327.179688 169.066406 332.773438 165.871094 C 343.53125 154.050781 339.945312 140.167969 339.945312 140.167969 " fill-opacity="1" fill-rule="nonzero"/><path fill="#957768" d="M 335.78125 127.746094 C 324.0625 120.542969 311.761719 129.601562 310.144531 130.863281 C 313.925781 129.898438 336.199219 124.953125 336.253906 143.191406 L 339.945312 140.167969 C 339.945312 140.167969 343.53125 154.050781 332.773438 165.871094 C 340.691406 161.355469 343.695312 154.15625 344.726562 148.140625 C 346.097656 140.148438 342.683594 131.988281 335.78125 127.746094 " fill-opacity="1" fill-rule="nonzero"/><path fill="#393536" d="M 311.863281 155.273438 C 307.722656 150.539062 316.945312 143.542969 326.53125 147.632812 C 326.53125 147.632812 321.023438 137.777344 307.722656 143.535156 L 321.917969 134.5625 C 321.917969 134.5625 320.738281 128.644531 310.089844 131.015625 C 310.089844 131.015625 323.339844 120.019531 335.910156 127.746094 C 342.816406 131.988281 346.226562 140.148438 344.855469 148.140625 C 343.09375 158.40625 335.597656 172.125 307.722656 170.066406 C 307.722656 170.066406 316.003906 160.007812 311.863281 155.273438 Z M 286.433594 153.847656 C 286.351562 154.894531 286.234375 155.949219 286.078125 157.011719 C 282.40625 181.449219 267.253906 204.589844 251.167969 222.84375 C 250.832031 223.222656 250.5 223.601562 250.160156 223.96875 C 250.160156 223.96875 257.132812 242.238281 250.160156 253.0625 C 250.160156 253.0625 256.496094 247.695312 260.511719 238.230469 C 260.78125 238.742188 261.042969 239.25 261.289062 239.753906 C 264.179688 245.625 264.292969 252.546875 261.359375 258.394531 C 260.410156 260.289062 259.222656 261.9375 257.75 263.230469 C 246.015625 271.320312 230.671875 274.605469 214.484375 272.117188 C 208.542969 271.203125 202.476562 269.765625 196.609375 268.375 C 189.617188 266.714844 182.382812 265 174.992188 264.054688 C 155.527344 261.566406 135.589844 267.382812 114.390625 281.785156 L 114.382812 281.785156 C 109.109375 273.96875 107.863281 265.710938 108.335938 258.484375 C 108.339844 258.375 108.347656 258.257812 108.355469 258.144531 L 117.707031 263.890625 C 115.5 262.269531 113.875 259.902344 112.691406 257.117188 C 110.355469 251.621094 110.621094 245.355469 113.238281 239.984375 L 113.277344 239.90625 C 113.636719 239.148438 113.933594 238.582031 114.128906 238.222656 C 118.144531 247.691406 124.484375 253.0625 124.484375 253.0625 C 117.511719 242.238281 124.484375 223.96875 124.484375 223.96875 C 124.484375 223.96875 100.609375 198.101562 91.425781 169.089844 C 88.601562 160.179688 88.390625 151.167969 90.28125 142.816406 C 93.011719 130.761719 103.976562 122.320312 116.324219 122.648438 C 116.425781 122.652344 116.527344 122.65625 116.625 122.660156 C 116.625 122.660156 109.980469 120.679688 102.691406 119.480469 L 102.816406 119.351562 C 110.097656 111.671875 120.464844 107.660156 131.035156 108.226562 C 137.945312 108.59375 145.015625 110.214844 151.722656 113.800781 C 151.722656 113.800781 147.609375 109.113281 140.878906 104.332031 C 162.34375 105.488281 180.402344 119.789062 187.492188 139.527344 C 194.371094 120.394531 211.546875 106.371094 232.144531 104.476562 C 225.527344 109.203125 221.5 113.800781 221.5 113.800781 C 229.789062 109.371094 238.628906 107.941406 247.039062 108.164062 C 256.6875 108.421875 265.957031 112.234375 272.84375 119.003906 L 272.957031 119.113281 C 264.796875 120.214844 256.597656 122.660156 256.597656 122.660156 C 256.945312 122.648438 257.285156 122.640625 257.625 122.636719 C 274.480469 122.46875 287.71875 137.039062 286.433594 153.847656 Z M 252.132812 286.328125 C 246.082031 292.234375 240.136719 297.128906 234.324219 301.140625 C 227.949219 304.8125 215.644531 309.796875 204.714844 302.035156 C 204.714844 302.035156 206.125 307.816406 215.820312 311.289062 C 215.601562 311.378906 215.378906 311.46875 215.160156 311.558594 C 211.203125 313.132812 206.808594 313.367188 202.753906 312.066406 C 201.1875 311.558594 200.023438 310.929688 199.464844 310.152344 C 199.464844 310.152344 199.484375 312.605469 200.5 315.792969 L 200.445312 315.804688 C 196.355469 316.539062 192.21875 314.574219 190.222656 310.929688 C 187.875 306.648438 187.769531 302.699219 187.792969 301.597656 C 187.59375 309.113281 184.476562 312.953125 181.523438 314.910156 C 180.070312 315.875 178.292969 316.234375 176.578125 315.941406 L 176.554688 315.9375 C 177.621094 312.675781 177.632812 310.152344 177.632812 310.152344 C 176.988281 311.050781 175.539062 311.753906 173.582031 312.292969 C 169.457031 313.429688 165.050781 313.125 161.082031 311.527344 C 161.007812 311.5 160.929688 311.46875 160.855469 311.4375 C 170.9375 307.984375 172.386719 302.035156 172.386719 302.035156 C 156.808594 313.105469 138.425781 298.257812 138.425781 298.257812 C 133.214844 294.175781 129.195312 290.234375 126.554688 287.414062 C 143.164062 277.363281 158.664062 273.382812 173.558594 275.28125 C 180.355469 276.152344 186.984375 277.722656 194 279.386719 C 200.082031 280.832031 206.375 282.324219 212.765625 283.308594 C 230.285156 286 247.070312 282.890625 260.589844 274.867188 C 258.164062 279.160156 255.179688 283.003906 252.132812 286.328125 Z M 120.871094 59.308594 C 121.15625 58.96875 121.554688 58.445312 122.089844 57.808594 C 122.621094 57.167969 123.261719 56.382812 124.023438 55.507812 C 124.808594 54.65625 125.695312 53.695312 126.6875 52.664062 C 127.183594 52.152344 127.6875 51.597656 128.246094 51.074219 C 128.804688 50.542969 129.382812 49.992188 129.976562 49.433594 C 130.574219 48.871094 131.1875 48.296875 131.816406 47.710938 C 132.457031 47.140625 133.132812 46.574219 133.808594 45.992188 C 134.488281 45.414062 135.179688 44.824219 135.878906 44.230469 C 136.59375 43.652344 137.324219 43.078125 138.0625 42.503906 C 138.800781 41.929688 139.535156 41.332031 140.300781 40.769531 C 141.066406 40.210938 141.835938 39.652344 142.605469 39.089844 C 144.144531 37.964844 145.726562 36.914062 147.285156 35.875 C 148.054688 35.34375 148.847656 34.859375 149.625 34.375 C 150.402344 33.882812 151.167969 33.402344 151.933594 32.941406 C 153.472656 32.039062 154.949219 31.15625 156.390625 30.378906 C 157.105469 29.988281 157.804688 29.613281 158.484375 29.246094 C 159.164062 28.898438 159.824219 28.558594 160.464844 28.234375 C 161.730469 27.582031 162.921875 27.042969 163.96875 26.550781 C 165.023438 26.0625 165.953125 25.667969 166.722656 25.347656 C 168.253906 24.703125 169.160156 24.390625 169.160156 24.390625 C 169.160156 24.390625 166.023438 26.515625 161.324219 29.703125 C 160.152344 30.496094 158.886719 31.359375 157.546875 32.265625 C 156.210938 33.179688 154.800781 34.140625 153.34375 35.136719 C 151.902344 36.144531 150.40625 37.183594 148.890625 38.238281 C 147.390625 39.320312 145.832031 40.371094 144.324219 41.488281 C 143.5625 42.035156 142.796875 42.582031 142.039062 43.125 C 141.285156 43.679688 140.539062 44.230469 139.796875 44.78125 C 139.050781 45.328125 138.308594 45.871094 137.582031 46.40625 C 136.859375 46.957031 136.148438 47.496094 135.449219 48.027344 C 134.742188 48.558594 134.050781 49.078125 133.375 49.585938 C 132.707031 50.109375 132.054688 50.621094 131.421875 51.121094 C 130.144531 52.109375 128.921875 53.027344 127.835938 53.933594 C 126.738281 54.816406 125.710938 55.613281 124.800781 56.324219 C 123.929688 57.070312 123.144531 57.699219 122.503906 58.222656 C 121.867188 58.753906 121.34375 59.152344 120.992188 59.425781 C 120.640625 59.703125 120.453125 59.847656 120.453125 59.847656 C 120.453125 59.847656 120.601562 59.660156 120.871094 59.308594 Z M 174.238281 42.5 C 174.695312 42.082031 175.363281 41.453125 176.261719 40.730469 C 177.164062 40 178.265625 39.117188 179.597656 38.195312 C 180.253906 37.722656 180.976562 37.253906 181.726562 36.738281 C 182.488281 36.25 183.296875 35.738281 184.160156 35.234375 C 185.867188 34.199219 187.765625 33.160156 189.824219 32.15625 C 191.878906 31.15625 194.078125 30.140625 196.414062 29.242188 C 198.742188 28.332031 201.1875 27.484375 203.710938 26.753906 C 204.976562 26.390625 206.25 26.015625 207.542969 25.71875 C 208.191406 25.566406 208.835938 25.394531 209.488281 25.253906 L 211.445312 24.839844 C 214.0625 24.3125 216.703125 23.90625 219.3125 23.601562 C 220.617188 23.441406 221.917969 23.351562 223.199219 23.242188 C 224.480469 23.144531 225.753906 23.101562 227 23.046875 C 229.5 22.980469 231.914062 23.003906 234.195312 23.128906 C 234.765625 23.152344 235.328125 23.175781 235.882812 23.195312 C 236.4375 23.246094 236.980469 23.28125 237.515625 23.332031 C 238.585938 23.441406 239.617188 23.515625 240.605469 23.640625 C 242.582031 23.902344 244.386719 24.117188 245.972656 24.445312 C 247.5625 24.738281 248.941406 24.984375 250.066406 25.277344 C 251.191406 25.535156 252.070312 25.773438 252.671875 25.921875 C 253.265625 26.078125 253.585938 26.160156 253.585938 26.160156 C 253.585938 26.160156 253.257812 26.144531 252.640625 26.117188 C 252.019531 26.078125 251.113281 26.042969 249.96875 25.953125 C 248.824219 25.847656 247.421875 25.847656 245.832031 25.753906 C 245.03125 25.710938 244.1875 25.671875 243.292969 25.675781 C 242.398438 25.65625 241.460938 25.636719 240.480469 25.617188 C 239.503906 25.59375 238.484375 25.632812 237.433594 25.636719 C 236.90625 25.648438 236.371094 25.640625 235.828125 25.640625 C 235.285156 25.660156 234.734375 25.679688 234.175781 25.699219 C 231.941406 25.75 229.59375 25.925781 227.171875 26.097656 C 225.960938 26.230469 224.730469 26.308594 223.488281 26.449219 C 222.871094 26.527344 222.246094 26.601562 221.621094 26.679688 C 220.992188 26.757812 220.359375 26.8125 219.730469 26.917969 C 217.210938 27.285156 214.65625 27.683594 212.125 28.214844 L 210.226562 28.601562 C 209.59375 28.734375 208.972656 28.890625 208.34375 29.039062 C 207.71875 29.191406 207.085938 29.320312 206.46875 29.480469 C 205.847656 29.644531 205.230469 29.804688 204.613281 29.964844 C 203.996094 30.121094 203.386719 30.292969 202.78125 30.472656 C 202.171875 30.648438 201.570312 30.820312 200.972656 30.988281 C 199.78125 31.367188 198.601562 31.71875 197.449219 32.105469 C 196.300781 32.496094 195.171875 32.882812 194.070312 33.285156 C 192.964844 33.664062 191.90625 34.09375 190.859375 34.496094 C 188.800781 35.34375 186.847656 36.152344 185.074219 36.976562 C 183.308594 37.796875 181.691406 38.582031 180.28125 39.316406 C 178.867188 40.050781 177.648438 40.722656 176.652344 41.289062 C 174.660156 42.433594 173.558594 43.164062 173.558594 43.164062 C 173.558594 43.164062 173.785156 42.925781 174.238281 42.5 Z M 62.402344 155.273438 C 58.261719 160.007812 66.539062 170.066406 66.539062 170.066406 C 38.660156 172.125 31.164062 158.40625 29.40625 148.140625 C 28.035156 140.148438 31.445312 131.988281 38.355469 127.746094 C 50.921875 120.019531 64.175781 131.015625 64.175781 131.015625 C 53.523438 128.644531 52.339844 134.5625 52.339844 134.5625 L 66.539062 143.535156 C 53.238281 137.777344 47.730469 147.632812 47.730469 147.632812 C 57.316406 143.542969 66.539062 150.539062 62.402344 155.273438 Z M 355.355469 131.550781 C 343.546875 99.066406 306.246094 116.53125 306.246094 116.53125 C 306.480469 57.21875 242.53125 37.902344 242.53125 37.902344 L 276.484375 26.714844 C 215.960938 0.136719 174.628906 26.714844 174.628906 26.714844 L 187.492188 10.472656 C 79.3125 47.386719 68.742188 116.53125 68.742188 116.53125 C 68.742188 116.53125 31.441406 99.066406 19.632812 131.550781 C 8.226562 162.921875 31.984375 188.3125 65.175781 186.25 C 66.359375 186.152344 67.546875 186.046875 68.742188 185.929688 C 68.742188 185.929688 37.308594 243.515625 68.742188 283.382812 L 80.96875 264.1875 C 80.96875 264.1875 79.21875 327.679688 124.625 348.347656 L 124.625 323.246094 C 124.625 323.246094 150.820312 363.113281 187.492188 374.929688 C 224.167969 363.113281 250.359375 323.246094 250.359375 323.246094 L 250.359375 348.347656 C 295.769531 327.679688 294.019531 264.1875 294.019531 264.1875 L 306.246094 283.382812 C 337.679688 243.515625 306.246094 185.929688 306.246094 185.929688 C 307.441406 186.046875 308.628906 186.152344 309.808594 186.25 C 343.003906 188.3125 366.761719 162.921875 355.355469 131.550781 " fill-opacity="1" fill-rule="nonzero"/><path fill="#fef1ea" d="M 167.90625 197.726562 C 172.582031 200.417969 175.203125 203.707031 175.203125 203.707031 C 170.578125 201.605469 166.679688 201.082031 163.613281 201.25 L 163.476562 201.355469 C 161.53125 201.464844 159.890625 201.796875 158.507812 202.289062 C 157.511719 202.660156 156.777344 203.050781 156.3125 203.332031 C 156.117188 203.453125 155.925781 203.578125 155.742188 203.707031 C 149.136719 208.394531 152.082031 218.324219 152.082031 218.324219 C 171.277344 195.363281 187.492188 218.324219 187.492188 218.324219 L 187.492188 176.328125 C 187.492188 176.328125 176.933594 189.597656 167.90625 197.726562 " fill-opacity="1" fill-rule="nonzero"/><path fill="#fef1ea" d="M 126.554688 287.414062 C 129.195312 290.234375 133.214844 294.175781 138.425781 298.257812 C 138.425781 298.257812 148.035156 306.015625 159.242188 306.132812 C 168.566406 299.226562 169.460938 288.535156 169.460938 288.535156 C 160.277344 291.980469 151.429688 286.074219 151.429688 286.074219 C 161.953125 286.074219 169.355469 282.183594 173.488281 279.199219 C 176.351562 277.515625 177.328125 275.910156 177.363281 275.847656 C 176.097656 275.640625 174.832031 275.445312 173.558594 275.28125 C 158.664062 273.382812 143.164062 277.363281 126.554688 287.414062 " fill-opacity="1" fill-rule="nonzero"/><path fill="#fef1ea" d="M 171.269531 116.320312 C 162.890625 109.34375 152.371094 104.949219 140.878906 104.332031 C 147.609375 109.113281 151.722656 113.800781 151.722656 113.800781 C 145.015625 110.214844 137.945312 108.59375 131.035156 108.226562 C 120.464844 107.660156 110.097656 111.671875 102.816406 119.351562 L 102.691406 119.480469 C 109.980469 120.679688 116.625 122.660156 116.625 122.660156 C 116.527344 122.65625 116.425781 122.652344 116.324219 122.648438 C 103.976562 122.320312 93.011719 130.761719 90.28125 142.816406 C 88.390625 151.167969 88.601562 160.179688 91.425781 169.089844 C 94.625 179.207031 99.617188 188.9375 104.753906 197.328125 C 78.109375 110.203125 170.925781 116.296875 171.269531 116.320312 " fill-opacity="1" fill-rule="nonzero"/><path fill="#fef1ea" d="M 181.707031 265.113281 C 181.707031 265.113281 181.757812 264.539062 181.375 263.488281 L 181.707031 265.113281 " fill-opacity="1" fill-rule="nonzero"/><path fill="#fef1ea" d="M 141.152344 244.242188 C 141.152344 244.242188 147.15625 239.324219 154.539062 240.796875 C 154.539062 240.796875 148.054688 225.351562 124.484375 223.96875 C 124.484375 223.96875 117.511719 242.238281 124.484375 253.0625 C 124.484375 253.0625 118.144531 247.691406 114.128906 238.222656 C 113.933594 238.582031 113.636719 239.148438 113.277344 239.90625 L 113.238281 239.984375 C 110.621094 245.355469 110.355469 251.621094 112.691406 257.117188 C 113.875 259.902344 115.5 262.269531 117.707031 263.890625 L 108.355469 258.144531 C 108.347656 258.257812 108.339844 258.375 108.335938 258.484375 C 108.335938 258.484375 106.945312 271.578125 114.382812 281.785156 L 114.390625 281.785156 C 135.589844 267.382812 155.527344 261.566406 174.992188 264.054688 C 177.246094 264.34375 179.480469 264.710938 181.703125 265.117188 L 181.707031 265.113281 C 181.707031 265.113281 175.488281 248.183594 141.152344 244.242188 " fill-opacity="1" fill-rule="nonzero"/><path fill="#fef1ea" d="M 38.714844 127.746094 C 31.808594 131.988281 28.398438 140.148438 29.769531 148.140625 C 30.503906 152.421875 32.234375 157.300781 36.027344 161.390625 C 29.949219 152.722656 32.703125 142.378906 32.703125 142.378906 L 36.390625 145.664062 C 37.070312 122.921875 59.917969 129.589844 63.65625 130.832031 C 63.941406 130.886719 64.234375 130.945312 64.535156 131.015625 C 64.535156 131.015625 51.285156 120.019531 38.714844 127.746094 " fill-opacity="1" fill-rule="nonzero"/><path fill="#a7a5a6" d="M 133.257812 140.226562 C 116.355469 140.222656 96.648438 142.921875 97.703125 155.691406 C 97.703125 155.691406 98.125 165.972656 102.832031 175.769531 L 102.835938 175.769531 L 133.257812 140.226562 " fill-opacity="1" fill-rule="nonzero"/><path fill="#a7a5a6" d="M 231.207031 140.496094 C 224.277344 140.757812 210.195312 141.585938 205.035156 144.054688 C 198.945312 146.355469 196.839844 149.925781 196.300781 153.023438 C 196.300781 153.023438 194.796875 159.769531 199.734375 170.820312 C 200.238281 171.992188 200.785156 173.109375 201.359375 174.167969 L 201.390625 174.21875 C 201.800781 174.96875 202.222656 175.6875 202.644531 176.371094 L 231.175781 140.808594 L 231.207031 140.496094 " fill-opacity="1" fill-rule="nonzero"/><path fill="#393536" d="M 288.445312 139.078125 C 287.480469 139.078125 286.695312 138.296875 286.695312 137.332031 C 286.695312 136.367188 287.480469 135.582031 288.445312 135.582031 C 289.410156 135.582031 290.195312 136.367188 290.195312 137.332031 C 290.195312 138.296875 289.410156 139.078125 288.445312 139.078125 Z M 288.445312 144.308594 C 287.480469 144.308594 286.695312 143.523438 286.695312 142.558594 C 286.695312 141.59375 287.480469 140.808594 288.445312 140.808594 C 289.410156 140.808594 290.195312 141.59375 290.195312 142.558594 C 290.195312 143.523438 289.410156 144.308594 288.445312 144.308594 Z M 231.175781 140.808594 L 202.644531 176.371094 C 202.222656 175.6875 201.800781 174.96875 201.390625 174.21875 L 201.359375 174.167969 C 200.785156 173.109375 200.238281 171.992188 199.734375 170.820312 C 194.796875 159.769531 196.300781 153.023438 196.300781 153.023438 C 196.839844 149.925781 198.945312 146.355469 205.035156 144.054688 C 210.195312 141.585938 224.277344 140.757812 231.207031 140.496094 Z M 102.835938 175.769531 C 98.125 165.972656 97.703125 155.691406 97.703125 155.691406 C 96.648438 142.921875 116.355469 140.222656 133.257812 140.226562 Z M 87.335938 139.078125 C 86.371094 139.078125 85.589844 138.296875 85.589844 137.332031 C 85.589844 136.367188 86.371094 135.582031 87.335938 135.582031 C 88.300781 135.582031 89.085938 136.367188 89.085938 137.332031 C 89.085938 138.296875 88.300781 139.078125 87.335938 139.078125 Z M 87.335938 144.308594 C 86.371094 144.308594 85.589844 143.523438 85.589844 142.558594 C 85.589844 141.59375 86.371094 140.808594 87.335938 140.808594 C 88.300781 140.808594 89.085938 141.59375 89.085938 142.558594 C 89.085938 143.523438 88.300781 144.308594 87.335938 144.308594 Z M 291.167969 131.160156 C 247.796875 130.742188 219.785156 133.207031 203.359375 135.511719 C 198.195312 136.238281 192.988281 136.601562 187.78125 136.601562 C 182.578125 136.601562 177.375 136.238281 172.207031 135.511719 C 155.78125 133.207031 127.773438 130.742188 84.402344 131.160156 C 83.570312 131.167969 82.894531 131.84375 82.894531 132.675781 L 82.894531 145.355469 C 82.894531 145.929688 83.21875 146.453125 83.730469 146.710938 L 87.757812 148.726562 C 90.21875 149.953125 91.929688 152.292969 92.34375 155.015625 C 93.066406 159.761719 94.59375 167.835938 97.484375 175.921875 C 97.484375 175.921875 97.667969 176.425781 98.058594 177.300781 C 106.367188 195.851562 124.484375 199.792969 142.996094 199.582031 C 164.832031 199.332031 181.753906 179.957031 183.859375 158.960938 C 183.894531 158.605469 183.929688 158.238281 183.960938 157.875 C 184.113281 156.199219 185.292969 154.742188 186.933594 154.386719 C 187.222656 154.320312 187.507812 154.292969 187.78125 154.292969 C 188.0625 154.292969 188.34375 154.320312 188.632812 154.386719 C 190.273438 154.742188 191.453125 156.199219 191.605469 157.875 C 191.636719 158.238281 191.671875 158.605469 191.707031 158.960938 C 193.816406 179.957031 210.734375 199.332031 232.570312 199.582031 C 251.082031 199.792969 269.199219 195.851562 277.507812 177.300781 C 277.898438 176.425781 278.082031 175.921875 278.082031 175.921875 C 280.96875 167.835938 282.5 159.761719 283.226562 155.015625 C 283.640625 152.292969 285.351562 149.953125 287.808594 148.726562 L 291.835938 146.710938 C 292.351562 146.453125 292.671875 145.929688 292.671875 145.355469 L 292.671875 132.675781 C 292.671875 131.84375 291.996094 131.167969 291.167969 131.160156 " fill-opacity="1" fill-rule="nonzero"/></svg>